<svg width="388" height="60" viewBox="0 0 388 60" fill="none" xmlns="http://www.w3.org/2000/svg">
<path d="M0 4C0 1.79086 1.79086 0 4 0H384C386.209 0 388 1.79086 388 4V56C388 58.2091 386.209 60 384 60H4C1.79086 60 0 58.2091 0 56V4Z" fill="#FAFAFA"/>
<path d="M47.717 42.2463C55.3687 32.6165 52.2976 18.302 41.5227 12.4721C26.1151 4.0916 8.261 18.3541 12.6855 35.2191C16.6935 50.4185 36.1613 55.1033 46.6759 43.5476C46.5718 39.019 47.8211 34.126 43.9692 30.8467C40.1173 27.5674 40.7419 28.9728 39.5447 28.9728H33.923V14.4501H31.7888V43.1312H33.923V31.159H39.6488C41.783 31.159 44.4377 33.9178 44.6459 36.052C44.8541 38.2382 44.5418 40.7367 44.6459 42.975C36.1613 51.4596 21.6906 49.1693 16.0689 38.5505C9.45821 26.0058 19.14 11.2749 33.1943 12.0557C45.4267 12.6803 53.4948 25.6414 48.8101 36.9889C48.6539 37.3013 47.8211 38.8628 47.8211 38.9669V42.3504L47.717 42.2463Z" fill="#2EA898"/>
<path d="M30.7998 14.4501H28.0931C25.074 14.4501 20.6495 18.3541 20.6495 21.4772V29.0249H15.7045V31.0029L15.8607 31.159H20.5975V43.1312H22.6275V31.159H30.6957L30.8519 31.0029V29.0249H22.6275V21.9978C22.6275 19.7595 25.6987 16.5843 27.9369 16.5843H30.5916L30.7478 16.4281V14.4501H30.7998Z" fill="#2EA898"/>
<path d="M80.4808 37.4L76.4608 26.38L72.4208 37.4L67.0408 23H68.9208L72.4608 32.7L75.9008 23H77.1208L80.5208 32.7L84.1008 23H85.8808L80.4808 37.4ZM90.3067 27.52C90.9467 27.52 91.5401 27.64 92.0867 27.88C92.6467 28.1067 93.1267 28.4333 93.5267 28.86C93.9267 29.2867 94.2401 29.8067 94.4667 30.42C94.6934 31.02 94.8067 31.6933 94.8067 32.44C94.8067 32.5333 94.8067 32.62 94.8067 32.7C94.8067 32.78 94.8001 32.8733 94.7867 32.98H87.3267C87.3534 33.3267 87.4534 33.6667 87.6267 34C87.8001 34.32 88.0267 34.6067 88.3067 34.86C88.5867 35.1133 88.9134 35.3133 89.2867 35.46C89.6601 35.6067 90.0667 35.68 90.5067 35.68C90.9601 35.68 91.3601 35.6133 91.7067 35.48C92.0667 35.3333 92.3601 35.1733 92.5867 35C92.8534 34.8 93.0867 34.5733 93.2867 34.32L94.3467 35.42C94.0667 35.7667 93.7334 36.0733 93.3467 36.34C93.0134 36.5667 92.6067 36.7733 92.1267 36.96C91.6601 37.1467 91.1201 37.24 90.5067 37.24C89.8001 37.24 89.1534 37.12 88.5667 36.88C87.9801 36.6267 87.4734 36.28 87.0467 35.84C86.6201 35.4 86.2867 34.8867 86.0467 34.3C85.8067 33.7 85.6867 33.06 85.6867 32.38C85.6867 31.7 85.7934 31.0667 86.0067 30.48C86.2334 29.8933 86.5467 29.38 86.9467 28.94C87.3601 28.5 87.8467 28.1533 88.4067 27.9C88.9801 27.6467 89.6134 27.52 90.3067 27.52ZM93.1667 31.58C93.1534 31.3267 93.0801 31.0533 92.9467 30.76C92.8267 30.4667 92.6467 30.1933 92.4067 29.94C92.1667 29.6867 91.8734 29.48 91.5267 29.32C91.1801 29.16 90.7734 29.08 90.3067 29.08C89.8001 29.08 89.3667 29.1667 89.0067 29.34C88.6601 29.5133 88.3667 29.7267 88.1267 29.98C87.9001 30.22 87.7201 30.4867 87.5867 30.78C87.4667 31.0733 87.3934 31.34 87.3667 31.58H93.1667ZM97.0773 21.88H98.7573V37H97.0773V21.88ZM109.578 35.46C109.298 35.8067 108.972 36.1067 108.598 36.36C108.278 36.5867 107.885 36.7933 107.418 36.98C106.952 37.1533 106.412 37.24 105.798 37.24C105.118 37.24 104.485 37.1133 103.898 36.86C103.325 36.6067 102.825 36.2667 102.398 35.84C101.972 35.4 101.638 34.8867 101.398 34.3C101.158 33.7 101.038 33.06 101.038 32.38C101.038 31.7 101.158 31.0667 101.398 30.48C101.638 29.8933 101.972 29.38 102.398 28.94C102.825 28.5 103.325 28.1533 103.898 27.9C104.485 27.6467 105.118 27.52 105.798 27.52C106.398 27.52 106.925 27.6067 107.378 27.78C107.832 27.9533 108.212 28.1467 108.518 28.36C108.878 28.6 109.198 28.8733 109.478 29.18L108.338 30.2C108.138 29.9867 107.918 29.8 107.678 29.64C107.452 29.4933 107.185 29.3667 106.878 29.26C106.572 29.14 106.212 29.08 105.798 29.08C105.332 29.08 104.905 29.1667 104.518 29.34C104.145 29.5133 103.825 29.7533 103.558 30.06C103.292 30.3533 103.085 30.7 102.938 31.1C102.792 31.5 102.718 31.9267 102.718 32.38C102.718 32.8333 102.792 33.26 102.938 33.66C103.085 34.06 103.292 34.4133 103.558 34.72C103.825 35.0133 104.145 35.2467 104.518 35.42C104.905 35.5933 105.332 35.68 105.798 35.68C106.252 35.68 106.645 35.6133 106.978 35.48C107.312 35.3467 107.592 35.1933 107.818 35.02C108.072 34.8333 108.298 34.6133 108.498 34.36L109.578 35.46ZM115.33 27.52C116.01 27.52 116.636 27.6467 117.21 27.9C117.796 28.1533 118.303 28.5 118.73 28.94C119.156 29.3667 119.49 29.88 119.73 30.48C119.97 31.0667 120.09 31.7 120.09 32.38C120.09 33.06 119.97 33.7 119.73 34.3C119.49 34.8867 119.156 35.4 118.73 35.84C118.303 36.2667 117.796 36.6067 117.21 36.86C116.636 37.1133 116.01 37.24 115.33 37.24C114.65 37.24 114.016 37.1133 113.43 36.86C112.856 36.6067 112.356 36.2667 111.93 35.84C111.503 35.4 111.17 34.8867 110.93 34.3C110.69 33.7 110.57 33.06 110.57 32.38C110.57 31.7 110.69 31.0667 110.93 30.48C111.17 29.88 111.503 29.3667 111.93 28.94C112.356 28.5 112.856 28.1533 113.43 27.9C114.016 27.6467 114.65 27.52 115.33 27.52ZM115.33 35.68C115.796 35.68 116.216 35.5933 116.59 35.42C116.976 35.2467 117.303 35.0133 117.57 34.72C117.836 34.4133 118.043 34.06 118.19 33.66C118.336 33.26 118.41 32.8333 118.41 32.38C118.41 31.9267 118.336 31.5 118.19 31.1C118.043 30.7 117.836 30.3533 117.57 30.06C117.303 29.7533 116.976 29.5133 116.59 29.34C116.216 29.1667 115.796 29.08 115.33 29.08C114.863 29.08 114.436 29.1667 114.05 29.34C113.676 29.5133 113.356 29.7533 113.09 30.06C112.823 30.3533 112.616 30.7 112.47 31.1C112.323 31.5 112.25 31.9267 112.25 32.38C112.25 32.8333 112.323 33.26 112.47 33.66C112.616 34.06 112.823 34.4133 113.09 34.72C113.356 35.0133 113.676 35.2467 114.05 35.42C114.436 35.5933 114.863 35.68 115.33 35.68ZM131.77 27.52C132.73 27.52 133.504 27.8267 134.09 28.44C134.677 29.04 134.97 29.9133 134.97 31.06V37H133.29V31.32C133.29 30.56 133.11 30 132.75 29.64C132.39 29.2667 131.91 29.08 131.31 29.08C130.964 29.08 130.664 29.16 130.41 29.32C130.17 29.4667 129.97 29.6333 129.81 29.82C129.624 30.0467 129.464 30.2933 129.33 30.56V37H127.65V31.32C127.65 30.56 127.47 30 127.11 29.64C126.75 29.2667 126.27 29.08 125.67 29.08C125.324 29.08 125.024 29.16 124.77 29.32C124.53 29.4667 124.33 29.6333 124.17 29.82C123.984 30.0467 123.824 30.2933 123.69 30.56V37H122.01V27.76H123.57V29.12C123.717 28.8267 123.91 28.56 124.15 28.32C124.35 28.12 124.61 27.94 124.93 27.78C125.264 27.6067 125.664 27.52 126.13 27.52C126.704 27.52 127.17 27.6133 127.53 27.8C127.904 27.9733 128.204 28.1667 128.43 28.38C128.684 28.6333 128.877 28.92 129.01 29.24C129.17 28.92 129.377 28.6333 129.63 28.38C129.857 28.1667 130.144 27.9733 130.49 27.8C130.837 27.6133 131.264 27.52 131.77 27.52ZM141.518 27.52C142.158 27.52 142.751 27.64 143.298 27.88C143.858 28.1067 144.338 28.4333 144.738 28.86C145.138 29.2867 145.451 29.8067 145.678 30.42C145.904 31.02 146.018 31.6933 146.018 32.44C146.018 32.5333 146.018 32.62 146.018 32.7C146.018 32.78 146.011 32.8733 145.998 32.98H138.538C138.564 33.3267 138.664 33.6667 138.838 34C139.011 34.32 139.238 34.6067 139.518 34.86C139.798 35.1133 140.124 35.3133 140.498 35.46C140.871 35.6067 141.278 35.68 141.718 35.68C142.171 35.68 142.571 35.6133 142.918 35.48C143.278 35.3333 143.571 35.1733 143.798 35C144.064 34.8 144.298 34.5733 144.498 34.32L145.558 35.42C145.278 35.7667 144.944 36.0733 144.558 36.34C144.224 36.5667 143.818 36.7733 143.338 36.96C142.871 37.1467 142.331 37.24 141.718 37.24C141.011 37.24 140.364 37.12 139.778 36.88C139.191 36.6267 138.684 36.28 138.258 35.84C137.831 35.4 137.498 34.8867 137.258 34.3C137.018 33.7 136.898 33.06 136.898 32.38C136.898 31.7 137.004 31.0667 137.218 30.48C137.444 29.8933 137.758 29.38 138.158 28.94C138.571 28.5 139.058 28.1533 139.618 27.9C140.191 27.6467 140.824 27.52 141.518 27.52ZM144.378 31.58C144.364 31.3267 144.291 31.0533 144.158 30.76C144.038 30.4667 143.858 30.1933 143.618 29.94C143.378 29.6867 143.084 29.48 142.738 29.32C142.391 29.16 141.984 29.08 141.518 29.08C141.011 29.08 140.578 29.1667 140.218 29.34C139.871 29.5133 139.578 29.7267 139.338 29.98C139.111 30.22 138.931 30.4867 138.798 30.78C138.678 31.0733 138.604 31.34 138.578 31.58H144.378ZM152.734 27.76H154.534V24.94H156.214V27.76H159.094V29.28H156.214V34.26C156.214 34.7133 156.32 35.0667 156.534 35.32C156.76 35.56 157.1 35.68 157.554 35.68C157.687 35.68 157.814 35.6667 157.934 35.64C158.054 35.6 158.167 35.5533 158.274 35.5C158.394 35.4467 158.507 35.38 158.614 35.3L159.234 36.68C158.834 36.9067 158.48 37.0533 158.174 37.12C157.867 37.2 157.58 37.24 157.314 37.24C156.98 37.24 156.647 37.18 156.314 37.06C155.994 36.9533 155.7 36.7867 155.434 36.56C155.167 36.32 154.947 36.02 154.774 35.66C154.614 35.2867 154.534 34.8467 154.534 34.34V29.28H152.734V27.76ZM165.173 27.52C165.853 27.52 166.48 27.6467 167.053 27.9C167.64 28.1533 168.147 28.5 168.573 28.94C169 29.3667 169.333 29.88 169.573 30.48C169.813 31.0667 169.933 31.7 169.933 32.38C169.933 33.06 169.813 33.7 169.573 34.3C169.333 34.8867 169 35.4 168.573 35.84C168.147 36.2667 167.64 36.6067 167.053 36.86C166.48 37.1133 165.853 37.24 165.173 37.24C164.493 37.24 163.86 37.1133 163.273 36.86C162.7 36.6067 162.2 36.2667 161.773 35.84C161.347 35.4 161.013 34.8867 160.773 34.3C160.533 33.7 160.413 33.06 160.413 32.38C160.413 31.7 160.533 31.0667 160.773 30.48C161.013 29.88 161.347 29.3667 161.773 28.94C162.2 28.5 162.7 28.1533 163.273 27.9C163.86 27.6467 164.493 27.52 165.173 27.52ZM165.173 35.68C165.64 35.68 166.06 35.5933 166.433 35.42C166.82 35.2467 167.147 35.0133 167.413 34.72C167.68 34.4133 167.887 34.06 168.033 33.66C168.18 33.26 168.253 32.8333 168.253 32.38C168.253 31.9267 168.18 31.5 168.033 31.1C167.887 30.7 167.68 30.3533 167.413 30.06C167.147 29.7533 166.82 29.5133 166.433 29.34C166.06 29.1667 165.64 29.08 165.173 29.08C164.707 29.08 164.28 29.1667 163.893 29.34C163.52 29.5133 163.2 29.7533 162.933 30.06C162.667 30.3533 162.46 30.7 162.313 31.1C162.167 31.5 162.093 31.9267 162.093 32.38C162.093 32.8333 162.167 33.26 162.313 33.66C162.46 34.06 162.667 34.4133 162.933 34.72C163.2 35.0133 163.52 35.2467 163.893 35.42C164.28 35.5933 164.707 35.68 165.173 35.68ZM179.5 29.02H185.32V30.62H179.5V37H177.82V23H185.72V24.6H179.5V29.02ZM196.988 23H198.668V37H196.988V30.62H189.968V37H188.288V23H189.968V29.02H196.988V23ZM213.966 29.32H219.126V35.4C218.739 35.7467 218.279 36.0533 217.746 36.32C217.279 36.5467 216.706 36.76 216.026 36.96C215.346 37.1467 214.546 37.24 213.626 37.24C212.613 37.24 211.679 37.0533 210.826 36.68C209.986 36.3067 209.253 35.7933 208.626 35.14C208.013 34.4867 207.533 33.72 207.186 32.84C206.839 31.96 206.666 31.0133 206.666 30C206.666 28.9867 206.839 28.04 207.186 27.16C207.533 26.28 208.013 25.5133 208.626 24.86C209.253 24.2067 209.986 23.6933 210.826 23.32C211.679 22.9467 212.613 22.76 213.626 22.76C214.533 22.76 215.306 22.8667 215.946 23.08C216.599 23.28 217.133 23.5067 217.546 23.76C218.026 24.0533 218.426 24.38 218.746 24.74L217.546 25.92C217.266 25.64 216.933 25.38 216.546 25.14C216.213 24.9533 215.799 24.78 215.306 24.62C214.826 24.4467 214.266 24.36 213.626 24.36C212.866 24.36 212.166 24.5133 211.526 24.82C210.899 25.1267 210.359 25.54 209.906 26.06C209.453 26.58 209.099 27.18 208.846 27.86C208.593 28.54 208.466 29.2533 208.466 30C208.466 30.7467 208.593 31.46 208.846 32.14C209.099 32.82 209.453 33.42 209.906 33.94C210.359 34.46 210.899 34.8733 211.526 35.18C212.166 35.4867 212.866 35.64 213.626 35.64C214.266 35.64 214.826 35.5933 215.306 35.5C215.786 35.3933 216.186 35.2733 216.506 35.14C216.879 34.9933 217.199 34.82 217.466 34.62V30.92H213.966V29.32ZM225.502 27.52C226.142 27.52 226.735 27.64 227.282 27.88C227.842 28.1067 228.322 28.4333 228.722 28.86C229.122 29.2867 229.435 29.8067 229.662 30.42C229.889 31.02 230.002 31.6933 230.002 32.44C230.002 32.5333 230.002 32.62 230.002 32.7C230.002 32.78 229.995 32.8733 229.982 32.98H222.522C222.549 33.3267 222.649 33.6667 222.822 34C222.995 34.32 223.222 34.6067 223.502 34.86C223.782 35.1133 224.109 35.3133 224.482 35.46C224.855 35.6067 225.262 35.68 225.702 35.68C226.155 35.68 226.555 35.6133 226.902 35.48C227.262 35.3333 227.555 35.1733 227.782 35C228.049 34.8 228.282 34.5733 228.482 34.32L229.542 35.42C229.262 35.7667 228.929 36.0733 228.542 36.34C228.209 36.5667 227.802 36.7733 227.322 36.96C226.855 37.1467 226.315 37.24 225.702 37.24C224.995 37.24 224.349 37.12 223.762 36.88C223.175 36.6267 222.669 36.28 222.242 35.84C221.815 35.4 221.482 34.8867 221.242 34.3C221.002 33.7 220.882 33.06 220.882 32.38C220.882 31.7 220.989 31.0667 221.202 30.48C221.429 29.8933 221.742 29.38 222.142 28.94C222.555 28.5 223.042 28.1533 223.602 27.9C224.175 27.6467 224.809 27.52 225.502 27.52ZM228.362 31.58C228.349 31.3267 228.275 31.0533 228.142 30.76C228.022 30.4667 227.842 30.1933 227.602 29.94C227.362 29.6867 227.069 29.48 226.722 29.32C226.375 29.16 225.969 29.08 225.502 29.08C224.995 29.08 224.562 29.1667 224.202 29.34C223.855 29.5133 223.562 29.7267 223.322 29.98C223.095 30.22 222.915 30.4867 222.782 30.78C222.662 31.0733 222.589 31.34 222.562 31.58H228.362ZM236.313 27.52C236.766 27.52 237.199 27.6 237.613 27.76C238.039 27.9067 238.413 28.1333 238.733 28.44C239.053 28.7333 239.306 29.1 239.493 29.54C239.693 29.98 239.793 30.4867 239.793 31.06V37H238.113V31.34C238.113 30.94 238.053 30.6 237.933 30.32C237.826 30.04 237.673 29.8067 237.473 29.62C237.273 29.4333 237.033 29.3 236.753 29.22C236.486 29.1267 236.199 29.08 235.893 29.08C235.506 29.08 235.166 29.1667 234.873 29.34C234.593 29.5 234.359 29.6733 234.173 29.86C233.946 30.1 233.753 30.36 233.593 30.64V37H231.913V27.76H233.473V29.06C233.646 28.78 233.866 28.5267 234.133 28.3C234.359 28.1133 234.653 27.94 235.013 27.78C235.373 27.6067 235.806 27.52 236.313 27.52ZM246.342 27.52C246.982 27.52 247.575 27.64 248.122 27.88C248.682 28.1067 249.162 28.4333 249.562 28.86C249.962 29.2867 250.275 29.8067 250.502 30.42C250.729 31.02 250.842 31.6933 250.842 32.44C250.842 32.5333 250.842 32.62 250.842 32.7C250.842 32.78 250.835 32.8733 250.822 32.98H243.362C243.389 33.3267 243.489 33.6667 243.662 34C243.835 34.32 244.062 34.6067 244.342 34.86C244.622 35.1133 244.949 35.3133 245.322 35.46C245.695 35.6067 246.102 35.68 246.542 35.68C246.995 35.68 247.395 35.6133 247.742 35.48C248.102 35.3333 248.395 35.1733 248.622 35C248.889 34.8 249.122 34.5733 249.322 34.32L250.382 35.42C250.102 35.7667 249.769 36.0733 249.382 36.34C249.049 36.5667 248.642 36.7733 248.162 36.96C247.695 37.1467 247.155 37.24 246.542 37.24C245.835 37.24 245.189 37.12 244.602 36.88C244.015 36.6267 243.509 36.28 243.082 35.84C242.655 35.4 242.322 34.8867 242.082 34.3C241.842 33.7 241.722 33.06 241.722 32.38C241.722 31.7 241.829 31.0667 242.042 30.48C242.269 29.8933 242.582 29.38 242.982 28.94C243.395 28.5 243.882 28.1533 244.442 27.9C245.015 27.6467 245.649 27.52 246.342 27.52ZM249.202 31.58C249.189 31.3267 249.115 31.0533 248.982 30.76C248.862 30.4667 248.682 30.1933 248.442 29.94C248.202 29.6867 247.909 29.48 247.562 29.32C247.215 29.16 246.809 29.08 246.342 29.08C245.835 29.08 245.402 29.1667 245.042 29.34C244.695 29.5133 244.402 29.7267 244.162 29.98C243.935 30.22 243.755 30.4867 243.622 30.78C243.502 31.0733 243.429 31.34 243.402 31.58H249.202ZM256.893 27.52C257.079 27.52 257.253 27.5333 257.413 27.56C257.586 27.5867 257.733 27.6133 257.853 27.64C257.999 27.68 258.126 27.72 258.233 27.76L257.613 29.28C257.546 29.2533 257.459 29.22 257.353 29.18C257.259 29.1533 257.146 29.1333 257.013 29.12C256.879 29.0933 256.726 29.08 256.553 29.08C256.179 29.08 255.859 29.1667 255.593 29.34C255.339 29.5 255.126 29.6733 254.953 29.86C254.753 30.1 254.579 30.36 254.433 30.64V37H252.753V27.76H254.313V29.18C254.486 28.8733 254.693 28.6 254.933 28.36C255.146 28.1467 255.413 27.9533 255.733 27.78C256.066 27.6067 256.453 27.52 256.893 27.52ZM266.057 30.64C265.857 30.36 265.63 30.1 265.377 29.86C265.15 29.6733 264.87 29.5 264.537 29.34C264.204 29.1667 263.81 29.08 263.357 29.08C262.89 29.08 262.464 29.1667 262.077 29.34C261.704 29.5133 261.384 29.7533 261.117 30.06C260.85 30.3533 260.644 30.7 260.497 31.1C260.35 31.5 260.277 31.9267 260.277 32.38C260.277 32.8333 260.35 33.26 260.497 33.66C260.644 34.06 260.85 34.4133 261.117 34.72C261.384 35.0133 261.704 35.2467 262.077 35.42C262.464 35.5933 262.89 35.68 263.357 35.68C263.81 35.68 264.204 35.6 264.537 35.44C264.87 35.28 265.15 35.1 265.377 34.9C265.63 34.6733 265.857 34.4133 266.057 34.12V30.64ZM267.737 27.76V37H266.197V35.66C265.997 35.9533 265.75 36.22 265.457 36.46C265.204 36.66 264.877 36.84 264.477 37C264.077 37.16 263.597 37.24 263.037 37.24C262.424 37.24 261.844 37.1133 261.297 36.86C260.764 36.6067 260.297 36.2667 259.897 35.84C259.497 35.4 259.177 34.8867 258.937 34.3C258.71 33.7 258.597 33.06 258.597 32.38C258.597 31.7 258.71 31.0667 258.937 30.48C259.177 29.88 259.497 29.3667 259.897 28.94C260.297 28.5 260.764 28.1533 261.297 27.9C261.844 27.6467 262.424 27.52 263.037 27.52C263.597 27.52 264.077 27.6067 264.477 27.78C264.877 27.94 265.204 28.12 265.457 28.32C265.75 28.56 265.997 28.82 266.197 29.1V27.76H267.737ZM270.652 21.88H272.332V37H270.652V21.88ZM282.898 29.02H288.818V30.62H282.898V35.4H289.418V37H281.218V23H289.298V24.6H282.898V29.02ZM300.237 27.76V41.6H298.557V35.86C298.477 35.9667 298.357 36.1 298.197 36.26C298.037 36.4067 297.83 36.5533 297.577 36.7C297.337 36.8467 297.05 36.9733 296.717 37.08C296.384 37.1867 296.004 37.24 295.577 37.24C294.95 37.24 294.364 37.1133 293.817 36.86C293.27 36.6067 292.797 36.2667 292.397 35.84C291.997 35.4 291.677 34.8867 291.437 34.3C291.21 33.7 291.097 33.06 291.097 32.38C291.097 31.7 291.21 31.0667 291.437 30.48C291.677 29.88 291.997 29.3667 292.397 28.94C292.797 28.5 293.27 28.1533 293.817 27.9C294.364 27.6467 294.95 27.52 295.577 27.52C296.137 27.52 296.61 27.6067 296.997 27.78C297.384 27.94 297.704 28.12 297.957 28.32C298.25 28.56 298.497 28.82 298.697 29.1V27.76H300.237ZM298.557 30.66C298.357 30.38 298.13 30.12 297.877 29.88C297.65 29.68 297.37 29.5 297.037 29.34C296.704 29.1667 296.304 29.08 295.837 29.08C295.37 29.08 294.944 29.1667 294.557 29.34C294.184 29.5133 293.864 29.7533 293.597 30.06C293.33 30.3533 293.124 30.7 292.977 31.1C292.844 31.5 292.777 31.9267 292.777 32.38C292.777 32.8333 292.844 33.26 292.977 33.66C293.124 34.06 293.33 34.4133 293.597 34.72C293.864 35.0133 294.184 35.2467 294.557 35.42C294.944 35.5933 295.37 35.68 295.837 35.68C296.304 35.68 296.704 35.6 297.037 35.44C297.37 35.28 297.65 35.1 297.877 34.9C298.13 34.66 298.357 34.3933 298.557 34.1V30.66ZM306.272 37.24C305.805 37.24 305.358 37.16 304.932 37C304.518 36.8533 304.152 36.6333 303.832 36.34C303.512 36.0333 303.258 35.66 303.072 35.22C302.885 34.78 302.792 34.2733 302.792 33.7V27.76H304.472V33.42C304.472 34.2067 304.685 34.78 305.112 35.14C305.538 35.5 306.065 35.68 306.692 35.68C307.078 35.68 307.418 35.6 307.712 35.44C308.005 35.28 308.245 35.1067 308.432 34.92C308.658 34.6933 308.845 34.44 308.992 34.16V27.76H310.672V37H309.112V35.58C308.925 35.9 308.698 36.18 308.432 36.42C308.205 36.6333 307.912 36.8267 307.552 37C307.205 37.16 306.778 37.24 306.272 37.24ZM313.541 27.76H315.221V37H313.541V27.76ZM313.241 24.8C313.241 24.4933 313.354 24.2267 313.581 24C313.807 23.7733 314.074 23.66 314.381 23.66C314.687 23.66 314.954 23.7733 315.181 24C315.407 24.2267 315.521 24.4933 315.521 24.8C315.521 25.1067 315.407 25.3733 315.181 25.6C314.954 25.8267 314.687 25.94 314.381 25.94C314.074 25.94 313.807 25.8267 313.581 25.6C313.354 25.3733 313.241 25.1067 313.241 24.8ZM319.625 27.76V29.1C319.825 28.82 320.071 28.56 320.365 28.32C320.618 28.12 320.938 27.94 321.325 27.78C321.711 27.6067 322.185 27.52 322.745 27.52C323.371 27.52 323.958 27.6467 324.505 27.9C325.051 28.1533 325.525 28.5 325.925 28.94C326.325 29.3667 326.638 29.88 326.865 30.48C327.105 31.0667 327.225 31.7 327.225 32.38C327.225 33.06 327.105 33.7 326.865 34.3C326.638 34.8867 326.325 35.4 325.925 35.84C325.525 36.2667 325.051 36.6067 324.505 36.86C323.958 37.1133 323.371 37.24 322.745 37.24C322.318 37.24 321.938 37.1867 321.605 37.08C321.271 36.9733 320.978 36.8467 320.725 36.7C320.485 36.5533 320.285 36.4067 320.125 36.26C319.965 36.1 319.845 35.9667 319.765 35.86V41.6H318.085V27.76H319.625ZM319.765 34.1C319.938 34.3933 320.158 34.66 320.425 34.9C320.651 35.1 320.931 35.28 321.265 35.44C321.611 35.6 322.018 35.68 322.485 35.68C322.951 35.68 323.371 35.5933 323.745 35.42C324.131 35.2467 324.458 35.0133 324.725 34.72C324.991 34.4133 325.191 34.06 325.325 33.66C325.471 33.26 325.545 32.8333 325.545 32.38C325.545 31.9267 325.471 31.5 325.325 31.1C325.191 30.7 324.991 30.3533 324.725 30.06C324.458 29.7533 324.131 29.5133 323.745 29.34C323.371 29.1667 322.951 29.08 322.485 29.08C322.018 29.08 321.611 29.1667 321.265 29.34C320.931 29.5 320.651 29.68 320.425 29.88C320.158 30.12 319.938 30.38 319.765 30.66V34.1ZM338.899 27.52C339.859 27.52 340.633 27.8267 341.219 28.44C341.806 29.04 342.099 29.9133 342.099 31.06V37H340.419V31.32C340.419 30.56 340.239 30 339.879 29.64C339.519 29.2667 339.039 29.08 338.439 29.08C338.093 29.08 337.793 29.16 337.539 29.32C337.299 29.4667 337.099 29.6333 336.939 29.82C336.753 30.0467 336.593 30.2933 336.459 30.56V37H334.779V31.32C334.779 30.56 334.599 30 334.239 29.64C333.879 29.2667 333.399 29.08 332.799 29.08C332.453 29.08 332.153 29.16 331.899 29.32C331.659 29.4667 331.459 29.6333 331.299 29.82C331.113 30.0467 330.953 30.2933 330.819 30.56V37H329.139V27.76H330.699V29.12C330.846 28.8267 331.039 28.56 331.279 28.32C331.479 28.12 331.739 27.94 332.059 27.78C332.393 27.6067 332.793 27.52 333.259 27.52C333.833 27.52 334.299 27.6133 334.659 27.8C335.033 27.9733 335.333 28.1667 335.559 28.38C335.813 28.6333 336.006 28.92 336.139 29.24C336.299 28.92 336.506 28.6333 336.759 28.38C336.986 28.1667 337.273 27.9733 337.619 27.8C337.966 27.6133 338.393 27.52 338.899 27.52ZM348.647 27.52C349.287 27.52 349.88 27.64 350.427 27.88C350.987 28.1067 351.467 28.4333 351.867 28.86C352.267 29.2867 352.58 29.8067 352.807 30.42C353.033 31.02 353.147 31.6933 353.147 32.44C353.147 32.5333 353.147 32.62 353.147 32.7C353.147 32.78 353.14 32.8733 353.127 32.98H345.667C345.693 33.3267 345.793 33.6667 345.967 34C346.14 34.32 346.367 34.6067 346.647 34.86C346.927 35.1133 347.253 35.3133 347.627 35.46C348 35.6067 348.407 35.68 348.847 35.68C349.3 35.68 349.7 35.6133 350.047 35.48C350.407 35.3333 350.7 35.1733 350.927 35C351.193 34.8 351.427 34.5733 351.627 34.32L352.687 35.42C352.407 35.7667 352.073 36.0733 351.687 36.34C351.353 36.5667 350.947 36.7733 350.467 36.96C350 37.1467 349.46 37.24 348.847 37.24C348.14 37.24 347.493 37.12 346.907 36.88C346.32 36.6267 345.813 36.28 345.387 35.84C344.96 35.4 344.627 34.8867 344.387 34.3C344.147 33.7 344.027 33.06 344.027 32.38C344.027 31.7 344.133 31.0667 344.347 30.48C344.573 29.8933 344.887 29.38 345.287 28.94C345.7 28.5 346.187 28.1533 346.747 27.9C347.32 27.6467 347.953 27.52 348.647 27.52ZM351.507 31.58C351.493 31.3267 351.42 31.0533 351.287 30.76C351.167 30.4667 350.987 30.1933 350.747 29.94C350.507 29.6867 350.213 29.48 349.867 29.32C349.52 29.16 349.113 29.08 348.647 29.08C348.14 29.08 347.707 29.1667 347.347 29.34C347 29.5133 346.707 29.7267 346.467 29.98C346.24 30.22 346.06 30.4867 345.927 30.78C345.807 31.0733 345.733 31.34 345.707 31.58H351.507ZM359.457 27.52C359.911 27.52 360.344 27.6 360.757 27.76C361.184 27.9067 361.557 28.1333 361.877 28.44C362.197 28.7333 362.451 29.1 362.637 29.54C362.837 29.98 362.937 30.4867 362.937 31.06V37H361.257V31.34C361.257 30.94 361.197 30.6 361.077 30.32C360.971 30.04 360.817 29.8067 360.617 29.62C360.417 29.4333 360.177 29.3 359.897 29.22C359.631 29.1267 359.344 29.08 359.037 29.08C358.651 29.08 358.311 29.1667 358.017 29.34C357.737 29.5 357.504 29.6733 357.317 29.86C357.091 30.1 356.897 30.36 356.737 30.64V37H355.057V27.76H356.617V29.06C356.791 28.78 357.011 28.5267 357.277 28.3C357.504 28.1133 357.797 27.94 358.157 27.78C358.517 27.6067 358.951 27.52 359.457 27.52ZM364.706 27.76H366.506V24.94H368.186V27.76H371.066V29.28H368.186V34.26C368.186 34.7133 368.293 35.0667 368.506 35.32C368.733 35.56 369.073 35.68 369.526 35.68C369.66 35.68 369.786 35.6667 369.906 35.64C370.026 35.6 370.14 35.5533 370.246 35.5C370.366 35.4467 370.48 35.38 370.586 35.3L371.206 36.68C370.806 36.9067 370.453 37.0533 370.146 37.12C369.84 37.2 369.553 37.24 369.286 37.24C368.953 37.24 368.62 37.18 368.286 37.06C367.966 36.9533 367.673 36.7867 367.406 36.56C367.14 36.32 366.92 36.02 366.746 35.66C366.586 35.2867 366.506 34.8467 366.506 34.34V29.28H364.706V27.76Z" fill="#2EA898"/>
</svg>
