<svg width="70" height="64" viewBox="0 0 70 64" fill="none" xmlns="http://www.w3.org/2000/svg">
<g clip-path="url(#clip0_1_137)">
<path d="M41.5024 51.6087C42.3129 51.4384 42.9725 51.3438 43.6133 51.1546C48.2876 49.906 52.9429 48.6196 57.636 47.4088C59.3134 46.9737 61.0285 46.917 62.7248 47.4467C64.7227 48.0899 65.9666 49.7358 65.9855 51.7411C66.0043 53.9167 64.7038 55.8274 62.706 56.4328C54.7523 58.8354 46.7797 61.2001 38.8261 63.5838C36.2251 64.3595 33.7749 63.9433 31.4378 62.5812C27.4044 60.2164 23.3333 57.9084 19.3188 55.5247C18.4895 55.0328 17.7544 54.8815 16.8874 55.2409C16.6613 55.3355 16.3974 55.3923 16.0958 55.4869C16.2655 56.149 16.4163 56.7733 16.567 57.4165C16.9063 58.93 16.1147 60.3488 14.6446 60.8029C13.3441 61.2001 12.0248 61.5407 10.6866 61.8434C9.15993 62.1839 7.76521 61.238 7.33171 59.6299C6.10662 54.9193 4.88152 50.1898 3.67528 45.4603C3.27948 43.909 2.86483 42.3577 2.48788 40.8064C2.03553 38.9903 2.88368 37.5714 4.6742 37.0795C5.80506 36.7768 6.93591 36.4742 8.08562 36.1904C9.7442 35.7742 11.1389 36.6066 11.629 38.2525C11.7609 38.7254 11.8928 39.1984 12.0248 39.7281C12.2886 39.6713 12.5336 39.6146 12.7598 39.5578C16.3409 38.6119 19.9219 37.6092 23.5218 36.7579C26.0097 36.1715 28.3279 36.6444 30.4954 38.139C33.1906 39.9929 35.9612 41.7334 38.6941 43.4928C39.0899 43.7387 39.5234 43.9468 39.9381 44.1549C42.7841 45.5738 43.538 48.5439 41.7286 51.1357C41.7097 51.2681 41.6532 51.3627 41.5024 51.6087ZM12.5902 41.9793C13.5703 45.7819 14.5315 49.5087 15.4927 53.2734C16.1901 53.0843 16.8121 52.9897 17.3963 52.7627C18.1502 52.4789 18.7722 52.6302 19.4507 53.0275C23.748 55.5436 28.0829 58.0219 32.3802 60.5569C34.3969 61.7488 36.4324 61.9947 38.6753 61.3137C46.4028 58.9678 54.1492 56.6598 61.8767 54.3518C63.0075 54.0113 63.7049 53.0275 63.7237 51.7978C63.7237 50.6817 63.0641 49.8871 61.839 49.5655C60.5008 49.225 59.1626 49.3385 57.8621 49.679C53.3387 50.8708 48.8341 52.0627 44.3296 53.3491C41.8982 54.0491 39.5611 53.9545 37.3559 52.7816C34.6796 51.3627 32.0598 49.8493 29.4211 48.3547C28.7426 47.9764 28.5541 47.3142 28.8745 46.7467C29.2138 46.1413 29.8546 46.0089 30.5897 46.4251C31.532 46.9737 32.4556 47.5413 33.3791 48.071C34.6607 48.8088 35.9235 49.5844 37.2617 50.2466C38.5245 50.8708 39.7119 50.4736 40.2773 49.3385C40.8239 48.2223 40.3527 46.9548 39.1465 46.3116C38.713 46.0846 38.2418 45.8954 37.8271 45.6305C34.9058 43.7387 31.9655 41.8847 29.0818 39.9362C27.6871 39.0092 26.217 38.593 24.5961 38.9335C22.4663 39.3875 20.3554 39.9362 18.2445 40.4848C16.3597 40.9388 14.5126 41.4685 12.5902 41.9793ZM10.2908 59.6299C11.4782 59.3083 12.7787 58.9867 14.0603 58.5705C14.2299 58.5138 14.3807 58.003 14.3242 57.757C12.741 51.533 11.1201 45.3089 9.53688 39.0849C9.3861 38.4606 9.06569 38.2714 8.46257 38.4416C7.46364 38.7254 6.46472 38.9713 5.4658 39.2362C4.6365 39.4632 4.52342 39.6335 4.74959 40.5037C5.33387 42.8117 5.93699 45.1008 6.54011 47.4088C7.52019 51.2114 8.50026 55.0328 9.48034 58.8354C9.55573 59.2327 9.64997 59.611 10.2908 59.6299Z" fill="white"/>
<path d="M60.9908 40.3145C60.3877 40.0497 59.8034 39.8605 59.2757 39.5578C58.2767 38.9713 57.372 38.8767 56.3731 39.5767C55.8265 39.9551 55.148 40.201 54.4884 40.3523C53.6402 40.5415 53.2067 40.9956 52.9994 41.809C52.8675 42.3577 52.6036 42.8684 52.3963 43.3982C52.1889 43.9846 51.7932 44.2684 51.1712 44.2495C49.3995 44.2495 47.6467 44.2495 45.875 44.2495C45.2907 44.2495 44.8949 43.9657 44.7065 43.4171C44.4237 42.6604 44.1599 41.9036 43.8395 41.1847C43.7264 40.9199 43.4437 40.6739 43.1798 40.5604C42.0678 40.0686 40.9369 39.5956 39.8061 39.1605C39.5422 39.0659 39.1653 39.047 38.9014 39.1416C38.1663 39.4064 37.469 39.747 36.7716 40.0686C36.1873 40.3523 35.6973 40.2577 35.2261 39.8037C34.001 38.574 32.7759 37.3254 31.532 36.0958C31.0985 35.6606 31.0231 35.1688 31.2681 34.6012C31.6451 33.7688 32.2859 32.9175 32.3047 32.0851C32.3047 31.2527 31.6639 30.4203 31.3058 29.5879C31.2493 29.4366 31.155 29.2852 31.1362 29.115C30.9854 27.8475 30.1373 27.3745 29.0441 26.9961C27.0839 26.3151 27.1028 26.2583 27.1028 24.1773C27.1028 22.8531 27.1028 21.5288 27.1028 20.2045C27.1028 19.5046 27.4043 19.0505 28.064 18.8235C28.8745 18.5397 29.8734 18.3884 30.4388 17.8209C31.0042 17.2722 31.1362 16.2885 31.4566 15.4939C31.4754 15.4372 31.5131 15.3615 31.5508 15.3047C32.5309 14.0183 32.2859 12.7697 31.5508 11.4265C30.8346 10.1023 30.9289 9.98876 31.9843 8.91042C33.0398 7.85101 34.0953 6.81051 35.113 5.7511C35.6219 5.22139 36.1873 5.03221 36.8093 5.42949C38.3737 6.39432 39.9192 6.69701 41.5024 5.50516C41.7474 5.31598 42.1055 5.18356 42.407 5.14572C43.4437 5.01329 43.8206 4.33224 44.1599 3.42417C45.0269 1.02157 44.6876 1.19183 47.3263 1.19183C48.5514 1.19183 49.7765 1.21075 51.0016 1.19183C51.7366 1.17291 52.189 1.49452 52.434 2.19449C52.7167 3.00797 52.8675 4.01063 53.414 4.57818C53.9418 5.1268 54.9219 5.24031 55.6946 5.543C55.8454 5.59975 56.015 5.65651 56.1469 5.7511C57.259 6.60241 58.371 6.46999 59.483 5.7511C59.6714 5.61867 59.9165 5.56192 60.1238 5.46733C61.0285 5.07005 61.2923 5.1268 61.9897 5.82677C63.1206 6.96186 64.2326 8.11586 65.3823 9.23203C65.9289 9.76174 66.0985 10.3482 65.6838 11.0103C64.7038 12.5616 64.4776 14.094 65.6273 15.6642C65.8346 15.948 65.9665 16.3452 66.0231 16.7236C66.155 17.6506 66.7393 18.01 67.5497 18.3127C70.2073 19.2965 69.9057 18.8992 69.9245 21.7558C69.9245 22.9288 69.9057 24.1206 69.9245 25.2935C69.9434 25.9746 69.6418 26.4097 69.0199 26.6367C68.2848 26.9016 67.5686 27.1664 66.8524 27.488C66.6074 27.6015 66.3623 27.8853 66.2493 28.1502C65.7592 29.2663 65.288 30.4014 64.8357 31.5365C64.7415 31.8013 64.7226 32.1608 64.8168 32.4446C65.0807 33.1824 65.42 33.8823 65.7404 34.5823C66.0042 35.1688 65.9289 35.6796 65.4765 36.1336C64.2514 37.3633 63.0263 38.6119 61.7824 39.8226C61.6316 40.0118 61.3112 40.1253 60.9908 40.3145ZM34.9245 31.9149C34.6795 32.4635 34.4722 33.0121 34.2272 33.5418C33.6241 34.9228 33.6052 34.9228 34.6795 35.9823C35.245 36.5498 35.7538 37.4389 36.4135 37.5525C37.0543 37.6849 37.8648 37.0417 38.5998 36.739C38.6564 36.7201 38.7318 36.6633 38.7883 36.6633C39.2595 36.6822 39.7684 36.5876 40.183 36.739C41.672 37.2876 43.1233 37.9687 44.5934 38.5362C45.1211 38.7443 45.4792 39.0092 45.6677 39.5578C45.8939 40.201 46.12 40.8442 46.4216 41.4685C46.5158 41.6766 46.8362 41.9225 47.0436 41.9225C48.0613 41.9793 49.0603 41.9604 50.078 41.9225C50.2853 41.9225 50.5869 41.6955 50.6811 41.5063C50.9827 40.8442 51.1712 40.1253 51.5104 39.4821C51.7178 39.1037 52.0947 38.7632 52.4905 38.593C53.9606 37.9308 55.4496 37.3065 56.9574 36.739C57.3532 36.5876 57.8809 36.5498 58.2767 36.6633C58.9741 36.8714 59.5961 37.2498 60.2934 37.4957C60.5007 37.5714 60.8588 37.5335 61.0096 37.3822C61.7635 36.6822 62.4986 35.9444 63.1959 35.1877C63.3279 35.0363 63.3844 34.6769 63.309 34.4877C63.064 33.8067 62.6682 33.1635 62.4609 32.4824C62.3478 32.0851 62.3667 31.5554 62.5174 31.1581C63.0829 29.6447 63.7048 28.1502 64.3645 26.6745C64.553 26.2773 64.9299 25.88 65.3069 25.653C65.91 25.3124 66.6074 25.1043 67.267 24.8773C67.6063 24.7638 67.7382 24.5746 67.7194 24.2152C67.7005 23.2314 67.6817 22.2288 67.7194 21.245C67.7382 20.8288 67.5874 20.6586 67.2105 20.5451C66.5508 20.3181 65.8535 20.11 65.2503 19.7694C64.8734 19.5613 64.5341 19.183 64.3457 18.7857C63.686 17.3101 63.1206 15.7966 62.4609 14.3021C62.2536 13.8102 62.1782 13.3751 62.4044 12.8832C62.7248 12.2211 63.0263 11.559 63.2713 10.8779C63.3467 10.6887 63.2902 10.3671 63.1583 10.2347C62.4609 9.47797 61.7258 8.74016 60.9719 8.04019C60.8212 7.90776 60.4631 7.85101 60.2557 7.92668C59.6338 8.13478 59.0306 8.41855 58.4464 8.72124C57.8432 9.02393 57.3155 8.96718 56.7124 8.64557C55.6569 8.09695 54.5826 7.47265 53.4329 7.20779C52.0382 6.88619 51.3408 6.12946 50.945 4.80519C50.5492 3.46201 50.4738 3.48093 49.0414 3.49984C48.2121 3.49984 47.2132 3.23499 46.6289 3.63227C46.0635 4.01063 45.9315 5.05113 45.63 5.80785C45.63 5.82677 45.6111 5.84569 45.6111 5.88353C45.4415 6.45107 45.0269 6.71592 44.4803 6.94294C43.0102 7.49157 41.5589 8.09695 40.1453 8.75908C39.6364 8.9861 39.1841 9.04285 38.6752 8.81583C38.0344 8.51314 37.3936 8.21045 36.7339 7.96452C36.5266 7.88885 36.1873 7.96452 36.0177 8.09695C35.3769 8.68341 34.8115 9.34554 34.1518 9.932C33.6618 10.3671 33.511 10.7644 33.8691 11.3509C34.1706 11.8427 34.3403 12.4292 34.6041 12.9589C34.8303 13.4508 34.7549 13.8859 34.5476 14.3778C33.8879 15.8345 33.2848 17.3101 32.7194 18.8046C32.5121 19.3343 32.2482 19.6938 31.7205 19.8829C31.0796 20.11 30.4577 20.3937 29.8168 20.6018C29.4587 20.7342 29.308 20.9045 29.308 21.3207C29.3457 22.2855 29.3457 23.2504 29.308 24.2152C29.2891 24.6125 29.421 24.8206 29.798 24.9341C30.4388 25.1611 31.0608 25.4449 31.7016 25.653C32.267 25.8421 32.5309 26.2394 32.7382 26.788C33.2848 28.2637 33.9256 29.7014 34.5287 31.1581C34.6984 31.3662 34.7926 31.6311 34.9245 31.9149Z" fill="white"/>
<path d="M14.1357 28.434C14.0603 28.434 14.0037 28.434 13.9284 28.434C11.7797 28.4151 11.6101 28.7367 10.8562 26.4287C10.7997 26.2774 10.6677 26.0882 10.5169 26.0125C9.83843 25.6909 9.14106 25.3882 8.4437 25.1423C8.21753 25.0666 7.91597 25.199 7.67095 25.2936C5.95582 26.0314 5.95582 26.0314 4.63649 24.7261C4.10875 24.1964 3.58102 23.6478 3.03444 23.118C2.5821 22.664 2.41247 22.1532 2.75173 21.5857C3.336 20.6398 3.26061 19.8074 2.80827 18.7669C2.41247 17.9156 1.97898 17.4048 1.11199 17.1399C0.169606 16.8372 0.018825 16.5724 0.018825 15.5886C0.018825 14.6238 0.0376726 13.659 0.018825 12.6942C-2.26405e-05 11.9753 0.282691 11.4834 0.961205 11.3131C1.99782 11.0672 2.48786 10.424 2.88366 9.44024C3.26061 8.51326 3.31716 7.77545 2.80827 6.96197C2.39362 6.29984 2.56325 5.71337 3.12868 5.20258C3.84489 4.52153 4.54225 3.82156 5.22076 3.10267C5.7108 2.59188 6.25738 2.42162 6.8605 2.79998C7.76519 3.36753 8.55679 3.25402 9.53686 2.85674C10.4604 2.47837 11.007 1.9865 11.2331 1.0406C11.4216 0.283873 11.9305 -0.0188174 12.7033 0.000100763C13.6833 0.0190189 14.6823 0.0190189 15.6623 0.000100763C16.3597 -0.0188174 16.8874 0.283873 17.0382 0.964925C17.2832 2.02434 17.924 2.47837 18.9041 2.89457C19.8277 3.27294 20.5439 3.32969 21.3732 2.8189C22.0328 2.42162 22.6171 2.57297 23.1448 3.14051C23.8233 3.8594 24.5207 4.55937 25.2369 5.24042C25.7458 5.73229 25.8966 6.29984 25.5385 6.8863C24.9542 7.79437 25.105 8.60785 25.5008 9.57267C25.8589 10.4807 26.3301 11.0294 27.2348 11.2564C28.0075 11.4456 28.3279 11.9753 28.3091 12.7698C28.2714 13.7536 28.2902 14.7562 28.3091 15.74C28.3279 16.4399 28.0264 16.9129 27.3479 17.121C27.2725 17.1399 27.2159 17.1778 27.1594 17.1967C26.2924 17.3669 25.7458 17.8588 25.595 18.748C25.595 18.7669 25.595 18.8047 25.5762 18.8236C24.9354 19.7317 24.9919 20.6209 25.5762 21.5478C25.9343 22.1154 25.7647 22.664 25.2935 23.137C24.5584 23.8369 23.8422 24.5558 23.1448 25.2936C22.6359 25.8423 22.0517 25.9747 21.4297 25.5963C20.5439 25.0288 19.7711 25.1612 18.8287 25.5774C17.9617 25.9558 17.3963 26.372 17.1324 27.299C16.8497 28.2638 16.5482 28.4151 15.5116 28.4151C15.0215 28.434 14.5692 28.434 14.1357 28.434ZM21.882 23.364C22.259 22.9856 22.6925 22.5883 23.0317 22.1343C23.1448 21.983 23.0883 21.5857 22.9752 21.3965C22.4663 20.5073 22.4475 19.6939 23.0506 18.8236C23.3522 18.3696 23.5972 17.8021 23.6914 17.2723C23.8799 16.2508 24.4453 15.7021 25.4065 15.4562C25.6139 15.3995 25.9531 15.2481 25.972 15.1157C26.0285 14.5292 26.0851 13.9238 25.9531 13.3563C25.9154 13.1482 25.4065 12.9779 25.0861 12.8833C24.3699 12.6563 23.9553 12.2212 23.7668 11.4834C23.5972 10.8023 23.3522 10.1213 22.9752 9.53483C22.4852 8.74027 22.4098 7.98355 22.9187 7.22682C23.3899 6.52685 22.8998 6.18633 22.504 5.75121C22.0894 5.29717 21.7313 4.97557 21.0904 5.41068C20.3365 5.94039 19.5826 5.86472 18.8099 5.35393C18.2822 5.0134 17.679 4.74855 17.0571 4.61612C16.1335 4.42694 15.5681 3.93507 15.3985 3.027C15.2665 2.32703 14.833 2.21352 14.2299 2.27028C13.6456 2.30811 13.0048 2.13785 12.8352 3.027C12.6656 3.93507 12.119 4.40802 11.1955 4.63504C10.4981 4.78639 9.81958 5.12691 9.19761 5.48636C8.57564 5.82688 8.02906 5.88364 7.40708 5.54311C7.10552 5.37285 6.63433 5.07016 6.4647 5.18367C5.97467 5.46744 5.54117 5.92147 5.20192 6.37551C5.08883 6.52685 5.22076 6.94305 5.3527 7.18899C5.80504 8.00247 5.80504 8.74027 5.27731 9.57267C4.90035 10.1781 4.69303 10.8969 4.46686 11.5969C4.27838 12.2023 3.97682 12.6185 3.35485 12.8455C2.22399 13.2617 2.28054 13.2806 2.22399 14.4535C2.1863 15.0778 2.37478 15.4184 2.99675 15.5508C3.88258 15.74 4.37262 16.3075 4.5611 17.2345C4.67418 17.8399 4.9569 18.4642 5.29615 18.975C5.82389 19.7695 5.86158 20.5263 5.33385 21.2641C4.76842 22.0965 5.52233 22.3802 5.88043 22.8721C6.25738 23.364 6.65318 23.3829 7.12437 23.0802C7.89712 22.5883 8.63218 22.6073 9.42378 23.137C9.83843 23.4207 10.3473 23.6667 10.8373 23.7613C12.0247 23.9694 12.7221 24.5937 12.986 25.7666C13.0237 25.9179 13.1368 26.1449 13.231 26.1449C13.8153 26.1828 14.4184 26.2395 14.9838 26.126C15.1723 26.0882 15.3608 25.6152 15.4362 25.3125C15.6623 24.4991 16.1712 24.0829 16.9817 23.8748C17.7356 23.6667 18.4706 23.3072 19.168 22.9289C19.6957 22.6451 20.1858 22.6073 20.7135 22.8721C21.0716 23.0235 21.4109 23.1559 21.882 23.364Z" fill="white"/>
<path d="M7.59555 40.447C8.25522 40.447 8.76411 40.9578 8.76411 41.601C8.76411 42.2442 8.25522 42.774 7.59555 42.774C6.95473 42.774 6.427 42.2632 6.427 41.6199C6.427 40.9578 6.93589 40.447 7.59555 40.447Z" fill="white"/>
<path d="M60.1803 22.7397C60.1615 29.1719 54.9407 34.4122 48.5514 34.3933C42.1432 34.3743 36.9601 29.134 36.9601 22.7019C36.9601 16.2319 42.1997 11.0105 48.6644 11.0483C55.0161 11.0861 60.1992 16.3454 60.1803 22.7397ZM57.9186 22.7019C57.8998 17.4994 53.6968 13.2996 48.5325 13.3185C43.406 13.3374 39.2218 17.5372 39.2218 22.7019C39.2218 27.9043 43.406 32.1231 48.5702 32.1231C53.7156 32.1231 57.9375 27.8854 57.9186 22.7019Z" fill="white"/>
<path d="M14.1357 6.92407C18.1314 6.92407 21.4108 10.1969 21.4297 14.2075C21.4297 18.1993 18.1502 21.5099 14.1545 21.5289C10.14 21.5289 6.89818 18.2749 6.87933 14.2454C6.87933 10.1969 10.1211 6.92407 14.1357 6.92407ZM14.1357 9.19425C11.3462 9.19425 9.14105 11.4455 9.14105 14.2454C9.15989 17.0264 11.4028 19.2776 14.1734 19.2587C16.8874 19.2398 19.1491 16.9696 19.1491 14.2265C19.1868 11.4644 16.9063 9.19425 14.1357 9.19425Z" fill="white"/>
</g>
<defs>
<clipPath id="clip0_1_137">
<rect width="70" height="64" fill="white"/>
</clipPath>
</defs>
</svg>
