<svg width="64" height="80" viewBox="0 0 64 80" fill="none" xmlns="http://www.w3.org/2000/svg">
<g clip-path="url(#clip0_1_117)">
<path d="M32.3035 0C32.9691 0.332681 33.1845 0.880626 33.1649 1.6047C33.1453 2.66145 33.1845 3.73777 33.1453 4.81409C33.1257 5.71429 32.6363 6.26223 31.9315 6.24266C31.2463 6.22309 30.8155 5.69472 30.796 4.81409C30.7764 3.75734 30.796 2.68102 30.7764 1.6047C30.7568 0.900196 30.9722 0.332681 31.6378 0C31.8923 0 32.1077 0 32.3035 0Z" fill="white"/>
<path d="M39.5277 61.3503C39.5277 59.9218 39.5472 58.5519 39.5277 57.1625C39.4885 54.0314 40.7023 51.5656 43.3258 49.8239C46.4778 47.7496 49.0034 45.1077 50.7654 41.7613C51.8617 39.6674 52.5861 37.456 52.9581 35.1272C52.9972 34.9315 53.0364 34.7163 53.0951 34.5206C53.2909 33.8357 53.7999 33.503 54.4264 33.6008C55.0725 33.7182 55.4836 34.2662 55.327 35.0098C54.955 36.7515 54.6418 38.5519 54.0153 40.2153C52.2729 44.912 49.297 48.7085 45.0682 51.4286C42.758 52.9355 41.7008 54.9316 41.877 57.6517C41.9553 58.7476 41.8966 59.8435 41.877 60.9394C41.877 61.3308 41.9553 61.6047 42.3469 61.82C43.3845 62.3875 43.9327 63.2877 43.9327 64.4815C43.9131 65.6165 44.1285 66.7907 43.4432 67.8278C43.3845 67.9257 43.4237 68.1409 43.502 68.2584C44.2264 69.5304 44.0306 70.9002 43.8544 72.231C43.6782 73.5421 42.4643 74.501 41.0939 74.5597C39.8409 74.5989 38.6075 74.5597 37.2175 74.5597C37.2175 75.3621 37.2175 76.1057 37.2175 76.8494C37.1979 78.9433 36.1407 80 34.0263 80C32.6167 80 31.2071 80.0196 29.7975 80C27.9963 79.9805 26.8804 78.8846 26.8412 77.0842C26.8216 76.2819 26.8412 75.4795 26.8412 74.5793C25.7057 74.5793 24.6485 74.5793 23.5913 74.5793C21.2811 74.5597 20.126 73.4247 20.1064 71.1351C20.1064 70.137 19.989 69.0999 20.5959 68.1801C20.6742 68.0627 20.5372 67.7691 20.4588 67.5539C19.9302 66.0274 19.8519 64.501 20.5176 63.0137C20.7134 62.5636 21.1441 62.1723 21.5748 61.9179C22.0055 61.6439 22.1817 61.3895 22.1621 60.8807C22.123 59.6087 22.123 58.3366 22.1621 57.0451C22.2208 54.7163 21.2811 52.955 19.2842 51.683C15.2511 49.0998 12.197 45.6165 10.3958 41.1742C6.9697 32.7202 7.98775 24.7359 13.5087 17.4756C17.2677 12.5049 22.3775 9.64779 28.5445 8.63018C28.7011 8.61061 28.8577 8.59104 29.0144 8.57147C29.8171 8.51276 30.3652 8.90415 30.4435 9.56951C30.5219 10.1762 30.1107 10.7045 29.3472 10.8611C28.3291 11.0959 27.2915 11.2525 26.293 11.5069C18.2857 13.6595 12.0404 20.7241 11.0615 28.9237C10.0043 37.73 13.1955 44.6771 20.5176 49.6674C23.2193 51.5069 24.5506 53.9139 24.4919 57.1429C24.4723 58.5128 24.4919 59.9022 24.4919 61.3308C29.4842 61.3503 34.457 61.3503 39.5277 61.3503ZM31.9902 66.8298C34.5745 66.8298 37.1392 66.8298 39.7234 66.8298C41.5833 66.8298 41.5833 66.8298 41.5638 64.9903C41.5638 63.8552 41.4659 63.7574 40.3108 63.7574C34.9856 63.7574 29.6409 63.7574 24.3157 63.7574C22.4166 63.7574 22.4166 63.7574 22.4362 65.6165C22.4362 66.6732 22.6124 66.8298 23.65 66.8298C26.4301 66.8298 29.2101 66.8298 31.9902 66.8298ZM32.0881 69.1781C29.4647 69.1781 26.8216 69.1781 24.1982 69.1781C22.4362 69.1781 22.4362 69.1781 22.4362 70.9394C22.4362 72.1527 22.5145 72.231 23.7283 72.231C29.0339 72.231 34.3591 72.231 39.6647 72.231C41.6029 72.231 41.6029 72.231 41.5833 70.3132C41.5638 69.3151 41.4463 69.1781 40.4478 69.1781C37.6482 69.1781 34.8681 69.1781 32.0881 69.1781ZM34.829 74.6184C32.8712 74.6184 31.0505 74.6184 29.171 74.6184C29.171 75.4795 29.1318 76.2818 29.2101 77.0646C29.2297 77.2799 29.6017 77.6126 29.8366 77.6126C31.2854 77.6713 32.7342 77.6713 34.1829 77.6126C34.3983 77.6126 34.7898 77.2603 34.8094 77.0451C34.8877 76.2819 34.829 75.4795 34.829 74.6184Z" fill="white"/>
<path d="M28.2508 20.0978C28.2508 19.0606 28.2508 18.0234 28.2508 16.9862C28.2508 15.5576 28.8578 14.951 30.2869 14.9314C31.4616 14.9119 32.6363 14.9119 33.811 14.9314C35.1422 14.9706 35.7492 15.5968 35.7492 16.9275C35.7492 17.8081 35.7687 18.6888 35.7492 19.589C35.7296 19.9803 35.8471 20.176 36.2386 20.3326C37.7853 20.9197 37.7657 20.9393 38.9404 19.7651C39.3711 19.3346 39.7626 18.904 40.2129 18.5126C40.996 17.8277 41.8379 17.7886 42.6014 18.4931C43.6195 19.4324 44.5788 20.4109 45.5381 21.4089C46.2625 22.1721 46.2037 23.0528 45.4598 23.8551C44.8137 24.54 44.1481 25.2054 43.4628 25.8512C43.1496 26.1447 43.13 26.36 43.2475 26.7905C43.5803 28.0625 44.3047 28.5322 45.5968 28.3169C46.1842 28.2191 46.7911 28.2778 47.398 28.3169C48.3769 28.3561 49.0229 28.9627 49.0621 29.9216C49.1013 31.3306 49.1013 32.7396 49.0621 34.1291C49.0229 35.1467 48.3769 35.7338 47.2609 35.7925C46.3604 35.8316 45.4402 35.8316 44.52 35.7925C44.011 35.7729 43.8544 36.0077 43.6195 36.4187C42.9538 37.495 43.2475 38.2387 44.1872 38.9432C44.6571 39.2954 45.0682 39.7651 45.4598 40.2152C46.2233 41.0371 46.2429 41.9177 45.4794 42.7201C44.5788 43.679 43.6195 44.6183 42.6601 45.5381C41.8575 46.2817 40.9765 46.2622 40.1542 45.5185C39.4885 44.8923 38.8425 44.2465 38.216 43.5811C37.8831 43.2289 37.6091 43.2289 37.1392 43.3463C35.8666 43.6398 35.5338 44.403 35.71 45.5968C35.7883 46.1643 35.7296 46.7318 35.71 47.3189C35.6708 48.4735 35.0444 49.1193 33.9088 49.1389C32.6167 49.1584 31.305 49.1584 29.9933 49.1389C28.8969 49.1193 28.2508 48.4931 28.2117 47.3776C28.1725 46.4187 28.1921 45.4598 28.2117 44.4813C28.2313 44.0899 28.0942 43.8942 27.7027 43.7377C26.1756 43.1506 26.1756 43.131 25.0009 44.3052C24.5898 44.7162 24.1982 45.1271 23.7871 45.5185C22.9648 46.2622 22.0838 46.2817 21.2811 45.5185C20.3414 44.6183 19.4212 43.6985 18.5207 42.7592C17.718 41.9177 17.7375 41.0371 18.5207 40.1956C19.1667 39.5107 19.8324 38.8453 20.5176 38.1995C20.8308 37.906 20.8113 37.6712 20.7134 37.2602C20.4001 36.0077 19.6757 35.5772 18.4228 35.7925C17.8746 35.8903 17.2872 35.8316 16.6999 35.7925C15.5448 35.7338 14.9379 35.1075 14.8987 33.953C14.8792 32.6614 14.8792 31.3502 14.8987 30.0391C14.9183 28.9432 15.5644 28.3169 16.6608 28.2974C17.6005 28.2778 18.5402 28.2778 19.48 28.2974C19.9107 28.3169 20.0673 28.1408 20.2827 27.7886C20.9875 26.6535 20.7329 25.8121 19.6953 25.0684C19.2255 24.7162 18.8143 24.2465 18.4228 23.7964C17.7375 23.0332 17.718 22.1526 18.4228 21.4089C19.3429 20.4304 20.3022 19.4715 21.3007 18.5322C22.1034 17.769 22.9648 17.8081 23.8067 18.5909C24.5115 19.2563 25.1575 19.9608 25.8623 20.6066C26.0385 20.7631 26.4105 20.8218 26.6455 20.7436C27.2132 20.587 27.7027 20.3326 28.2508 20.0978ZM20.5567 22.6222C21.4182 23.4637 22.26 24.2661 23.1019 25.088C23.6305 25.5968 23.6892 26.1252 23.376 26.7905C22.9844 27.6124 22.632 28.4344 22.3188 29.2954C21.9272 30.3913 21.6727 30.6066 20.5176 30.6066C19.4604 30.6066 18.4032 30.6066 17.3264 30.6066C17.3264 31.585 17.3264 32.4657 17.3264 33.4246C18.4815 33.4246 19.5974 33.4441 20.7134 33.4246C21.5552 33.405 22.0055 33.7768 22.26 34.54C22.5341 35.3815 22.8865 36.1839 23.2585 36.9862C23.7479 38.0234 23.7284 38.2974 22.9061 39.1193C22.1426 39.8825 21.3594 40.6457 20.6742 41.3306C21.3594 42.0743 21.9468 42.7201 22.6124 43.4441C23.4151 42.6222 24.2178 41.8395 24.9813 41.0175C25.5491 40.4109 26.1364 40.3326 26.8804 40.6848C27.7222 41.0958 28.5837 41.4481 29.4647 41.7612C30.2674 42.0351 30.6393 42.5048 30.6198 43.3854C30.5806 44.5009 30.6198 45.5968 30.6198 46.6927C31.6182 46.6927 32.5188 46.6927 33.439 46.6927C33.439 45.5381 33.4586 44.4422 33.439 43.3463C33.4194 42.5244 33.7718 42.0547 34.5549 41.7807C35.4359 41.4676 36.3169 41.1349 37.1392 40.724C37.9027 40.3522 38.5096 40.4304 39.097 41.0567C39.8605 41.859 40.6632 42.6418 41.4463 43.4246C42.1511 42.7396 42.7776 42.1134 43.4824 41.4089C42.6601 40.6066 41.8575 39.8042 41.0352 39.0019C40.4674 38.4539 40.3891 37.8864 40.7415 37.1819C41.1527 36.3209 41.5246 35.4402 41.8379 34.5205C42.112 33.7377 42.5818 33.405 43.4041 33.4246C44.52 33.4637 45.6164 33.4246 46.7519 33.4246C46.7519 32.4461 46.7519 31.5655 46.7519 30.6066C45.6164 30.6066 44.5396 30.6066 43.4433 30.6066C42.4252 30.6066 42.1315 30.3522 41.7791 29.4128C41.4659 28.5909 41.1527 27.769 40.7807 26.9667C40.3304 26.0077 40.35 25.6946 41.0939 24.9706C41.877 24.1878 42.6797 23.4246 43.365 22.7396C42.6601 22.0156 42.0337 21.3698 41.3484 20.6653C40.624 21.4089 39.8605 22.1917 39.1166 22.9745C38.5488 23.5811 37.9615 23.7181 37.1783 23.3072C36.3561 22.8766 35.4751 22.5244 34.5941 22.2308C33.811 21.9764 33.4586 21.5068 33.4781 20.6848C33.4977 19.5694 33.4781 18.4539 33.4781 17.3189C32.4992 17.3189 31.6182 17.3189 30.6589 17.3189C30.6589 18.5126 30.6393 19.6672 30.6589 20.8023C30.6589 21.5263 30.3457 21.9569 29.6604 22.1917C28.7794 22.5048 27.918 22.8571 27.0762 23.2485C26.0385 23.7181 25.7645 23.7181 24.9422 22.8766C24.1787 22.1134 23.4543 21.3111 22.7299 20.5674C21.9076 21.3306 21.2616 21.9373 20.5567 22.6222Z" fill="white"/>
<path d="M34.966 8.55197C37.6286 8.86508 40.2129 9.62829 42.621 10.9003C49.16 14.3445 53.3105 19.687 54.9746 26.9081C55.1116 27.5148 55.1899 28.141 55.2878 28.7477C55.4249 29.7066 55.0725 30.3132 54.3285 30.4111C53.6629 30.5089 53.193 30.0001 52.9777 29.0999C52.4882 27.2212 52.175 25.2643 51.4114 23.503C48.2985 16.4189 42.7972 12.2897 35.201 10.9394C35.0052 10.9003 34.7898 10.8807 34.594 10.8416C33.9284 10.685 33.5368 10.2741 33.5956 9.56958C33.6347 8.92379 34.1829 8.5324 34.966 8.55197Z" fill="white"/>
<path d="M3.11288 33.1508C2.46681 33.1508 1.82074 33.1703 1.17467 33.1508C0.489446 33.1116 0 32.6615 0 32.0353C0.0195779 31.3895 0.371979 30.9003 1.03763 30.8807C2.40808 30.822 3.77853 30.822 5.14898 30.8807C5.8342 30.9198 6.26491 31.4874 6.1866 32.094C6.10829 32.7789 5.67758 33.1508 4.97277 33.1703C4.36586 33.1703 3.73937 33.1508 3.11288 33.1508Z" fill="white"/>
<path d="M60.9263 33.1508C60.2998 33.1508 59.6733 33.1704 59.0664 33.1508C58.3224 33.1312 57.833 32.6811 57.8134 32.0353C57.7938 31.4091 58.2441 30.8612 58.9881 30.8416C60.2802 30.8025 61.5919 30.8025 62.8841 30.8416C63.6084 30.8807 64.0979 31.4483 64.0196 32.0745C63.9217 32.7594 63.5105 33.1312 62.8057 33.1508C62.1597 33.1704 61.5332 33.1508 60.9263 33.1508Z" fill="white"/>
<path d="M10.1217 8.88452C10.5524 9.13892 10.8853 9.27591 11.1398 9.51074C11.9816 10.3131 12.8039 11.135 13.6262 11.9765C14.2135 12.5832 14.2331 13.2877 13.7436 13.7573C13.2738 14.2074 12.569 14.1878 12.0012 13.6399C11.1202 12.7984 10.2196 11.9569 9.43651 11.0372C9.182 10.7241 9.08411 10.1174 9.182 9.70644C9.27989 9.4129 9.76933 9.17806 10.1217 8.88452Z" fill="white"/>
<path d="M50.9024 14.1682C50.6479 13.9725 50.1976 13.7964 50.0997 13.5029C49.9627 13.1506 49.9431 12.544 50.1585 12.2896C51.0982 11.2328 52.1162 10.2152 53.1734 9.25629C53.6042 8.8649 54.1523 8.94318 54.583 9.35414C55.0333 9.78467 55.1704 10.3522 54.7397 10.8218C53.7608 11.8786 52.7036 12.8962 51.6659 13.8943C51.5289 14.0508 51.2548 14.0508 50.9024 14.1682Z" fill="white"/>
<path d="M13.0584 49.8042C13.3521 50.0195 13.7828 50.2152 13.9198 50.5283C14.0569 50.8414 14.0765 51.448 13.8611 51.6633C12.9018 52.7396 11.8642 53.7572 10.7874 54.7357C10.3567 55.1271 9.78892 55.0097 9.37778 54.5987C8.94707 54.1682 8.8296 53.5811 9.26032 53.131C10.2392 52.0938 11.2573 51.0958 12.2753 50.1173C12.4515 49.9608 12.706 49.9412 13.0584 49.8042Z" fill="white"/>
<path d="M53.8587 55.1078C53.4476 54.8729 53.1343 54.7555 52.8994 54.5402C52.0379 53.7183 51.1961 52.8768 50.3543 52.0158C49.8061 51.4483 49.7669 50.7633 50.2172 50.2741C50.7262 49.7457 51.3723 49.7653 51.9988 50.3719C52.8798 51.2134 53.7804 52.0549 54.5635 52.9747C54.818 53.2878 54.8963 53.8944 54.7984 54.2858C54.7005 54.6185 54.1915 54.8142 53.8587 55.1078Z" fill="white"/>
<path d="M38.2551 31.9764C38.2747 35.4011 35.4555 38.2582 32.0294 38.2778C28.6033 38.2974 25.7645 35.4794 25.7449 32.0351C25.7253 28.5909 28.5249 25.7729 31.9706 25.7533C35.4163 25.7142 38.2356 28.5322 38.2551 31.9764ZM31.9902 28.0821C29.8171 28.0821 28.0746 29.8434 28.0942 32.0156C28.0942 34.1682 29.8758 35.949 32.0294 35.9295C34.1829 35.9295 35.9449 34.1486 35.9254 31.9764C35.9058 29.8238 34.1634 28.0821 31.9902 28.0821Z" fill="white"/>
</g>
<defs>
<clipPath id="clip0_1_117">
<rect width="64" height="80" fill="white"/>
</clipPath>
</defs>
</svg>
