<svg width="63" height="70" viewBox="0 0 63 70" fill="none" xmlns="http://www.w3.org/2000/svg">
<g clip-path="url(#clip0_1_131)">
<path d="M15.4304 70.0001C14.4487 67.0502 13.4484 64.0817 12.4666 61.1318C12.2999 60.6309 12.1147 60.1299 11.9294 59.5733C10.6513 59.8145 9.39164 60.0557 8.13201 60.2969C5.9647 60.7236 3.77888 61.1503 1.61157 61.5956C1.07438 61.7069 0.592754 61.6884 0.240799 61.2246C-0.12968 60.7236 -1.22963e-05 60.2412 0.296371 59.7403C3.48249 54.2301 6.65009 48.7199 9.83621 43.2283C10.1326 42.7273 10.077 42.4119 9.76212 41.9667C0.518659 28.9982 4.94589 10.5381 19.0241 3.1355C34.7509 -5.13909 53.8492 3.72919 57.5539 21.1132C59.1655 28.6271 57.6651 35.6216 53.312 41.9852C52.997 42.449 52.9415 42.7644 53.2379 43.2468C56.4055 48.7014 59.5545 54.1745 62.7036 59.6476C62.9074 60.0001 63.037 60.4824 63 60.872C62.9444 61.4843 62.2961 61.7811 61.5366 61.6142C58.2393 60.9648 54.9235 60.2969 51.6263 59.6476C51.4966 59.629 51.3484 59.6105 51.1447 59.5919C50.7001 60.9092 50.2555 62.2079 49.8109 63.5066C49.0885 65.6772 48.3661 67.8479 47.6436 70.0001C46.9582 70.0001 46.2543 70.0001 45.5689 70.0001C45.5319 69.8702 45.4948 69.7403 45.4207 69.629C42.3272 64.2487 39.2152 58.8498 36.1217 53.4695C35.9179 53.0984 35.6771 53.0242 35.2881 53.0798C32.843 53.4323 30.4163 53.4695 27.9712 53.0798C27.471 53.0056 27.1932 53.1169 26.9338 53.5993C23.9144 58.9054 20.858 64.1745 17.8015 69.462C17.7089 69.629 17.6348 69.8331 17.5607 70.0186C16.8197 70.0001 16.1344 70.0001 15.4304 70.0001ZM31.5463 2.22641C18.0609 2.22641 7.11319 13.1726 7.11319 26.6791C7.11319 40.167 18.0053 51.0947 31.4722 51.1132C44.9576 51.1503 55.9053 40.2041 55.9238 26.6976C55.9609 13.1912 45.0317 2.22641 31.5463 2.22641ZM11.6701 44.4528C8.87297 49.3136 6.1129 54.0817 3.29725 58.9611C3.66773 58.9054 3.92707 58.8683 4.16788 58.8312C6.81681 58.3118 9.46573 57.7737 12.1147 57.2542C13.115 57.0502 13.4854 57.2913 13.8374 58.2746C14.2079 59.3136 14.5413 60.3711 14.9118 61.4286C15.5045 63.1726 16.0973 64.9166 16.7457 66.7719C19.5242 61.9667 22.2287 57.2728 24.9703 52.5233C19.691 51.1132 15.3378 48.4416 11.6701 44.4528ZM59.7768 58.9797C56.9427 54.0446 54.1826 49.2765 51.3855 44.4342C47.7177 48.4416 43.3461 51.1132 38.1038 52.5047C40.8453 57.2542 43.5498 61.9481 46.3099 66.7348C46.4581 66.3451 46.5507 66.0854 46.6433 65.8257C47.514 63.2654 48.3846 60.7051 49.2552 58.1448C49.5516 57.2728 49.9221 57.0502 50.8297 57.1986C51.6448 57.347 52.4599 57.514 53.2749 57.681C55.3866 58.1262 57.4798 58.5344 59.7768 58.9797Z" fill="white"/>
<path d="M51.4966 26.6792C51.4966 37.7182 42.5125 46.6978 31.5092 46.6792C20.4875 46.6606 11.5404 37.6625 11.5589 26.6421C11.5775 15.6217 20.5245 6.6792 31.5092 6.66064C42.531 6.66064 51.4966 15.6402 51.4966 26.6792ZM13.7818 26.6606C13.7818 36.4937 21.7101 44.4529 31.5463 44.4529C41.3455 44.4529 49.2737 36.5308 49.2922 26.7163C49.3108 16.8833 41.3825 8.90554 31.5648 8.88699C21.7286 8.86844 13.7818 16.8276 13.7818 26.6606Z" fill="white"/>
<path d="M39.2337 32.8015C39.2337 33.692 39.2708 34.397 39.2152 35.0835C39.1411 36.141 38.3446 36.7347 37.3443 36.4007C35.6215 35.8256 33.9173 35.1577 32.2317 34.4898C31.75 34.3043 31.3425 34.3043 30.8424 34.4898C29.2678 35.1391 27.6377 35.6957 26.0632 36.3265C24.8035 36.8274 23.7106 36.1224 23.7847 34.6939C23.8773 32.9128 23.9885 31.1317 24.0441 29.3506C24.0626 29.0538 23.9329 28.6827 23.7477 28.423C22.6177 26.9573 21.4137 25.5473 20.3022 24.0631C19.5427 23.0427 19.8762 22.0594 21.0988 21.6883C22.7659 21.1688 24.4701 20.7235 26.1743 20.2968C26.73 20.1484 27.082 19.8887 27.3784 19.4063C28.3046 17.9221 29.2678 16.4378 30.2866 15.0093C31.0276 13.9703 32.0279 13.9703 32.7874 15.0464C33.8247 16.512 34.788 18.0334 35.7512 19.5733C36.0105 19.9814 36.3255 20.1855 36.77 20.2968C38.4187 20.7235 40.0858 21.1132 41.7159 21.6326C43.2349 22.115 43.5313 23.2467 42.5125 24.5083C41.4751 25.807 40.3822 27.0686 39.3449 28.3673C39.1226 28.6456 38.9929 29.0538 39.0114 29.4063C39.0485 30.5937 39.1596 31.7996 39.2337 32.8015ZM22.5807 23.4879C23.6551 24.7866 24.6368 26.0111 25.6556 27.1985C26.1743 27.8107 26.3596 28.4601 26.304 29.2393C26.1743 30.7978 26.1002 32.3562 25.9891 34.026C26.8968 33.6735 27.7674 33.4694 28.5083 33.0241C30.6386 31.744 32.6948 31.9851 34.788 33.1169C35.4734 33.4879 36.2514 33.7106 37.0664 34.0445C36.9923 32.9128 36.8997 31.8924 36.8626 30.872C36.7145 27.6438 36.4181 28.4415 38.3631 26.0668C39.0485 25.2319 39.7339 24.4156 40.4933 23.5065C39.2522 23.1911 38.1408 22.82 37.0108 22.653C35.3066 22.3933 34.1581 21.5399 33.3987 20C32.8985 18.9796 32.1946 18.0519 31.5277 16.9759C30.6756 18.3488 29.8606 19.5733 29.1196 20.8349C28.6195 21.7069 27.9341 22.1892 26.9523 22.3933C25.526 22.6902 24.0996 23.0983 22.5807 23.4879Z" fill="white"/>
</g>
<defs>
<clipPath id="clip0_1_131">
<rect width="63" height="70" fill="white"/>
</clipPath>
</defs>
</svg>
