<svg width="48" height="48" viewBox="0 0 48 48" fill="none" xmlns="http://www.w3.org/2000/svg">
<path d="M42.8604 38.6955C52.0425 27.1398 48.3571 9.9624 35.4272 2.96651C16.9381 -7.09008 -4.4868 10.0249 0.822581 30.263C5.63225 48.5023 28.9935 54.124 41.6111 40.2571C41.4862 34.8228 42.9853 28.9512 38.363 25.0161C33.7407 21.0809 34.4903 22.7674 33.0536 22.7674H26.3076V5.34012H23.7466V39.7574H26.3076V25.3908H33.1786C35.7396 25.3908 38.9252 28.7014 39.175 31.2624C39.4249 33.8858 39.0501 36.8841 39.175 39.57C28.9935 49.7515 11.6287 47.0031 4.8827 34.2606C-3.05014 19.207 8.56803 1.52986 25.4331 2.46681C40.112 3.21637 49.7938 18.7697 44.1721 32.3867C43.9847 32.7615 42.9853 34.6354 42.9853 34.7603V38.8204L42.8604 38.6955Z" fill="#2EA898"/>
<path d="M22.5598 5.34012H19.3117C15.6888 5.34012 10.3794 10.0249 10.3794 13.7727V22.8298H4.44543V25.2034L4.63282 25.3908H10.317V39.7574H12.7531V25.3908H22.4349L22.6222 25.2034V22.8298H12.7531V14.3973C12.7531 11.7114 16.4384 7.90112 19.1243 7.90112H22.3099L22.4973 7.71373V5.34012H22.5598Z" fill="#2EA898"/>
</svg>
