<svg width="245" height="67" viewBox="0 0 245 67" fill="none" xmlns="http://www.w3.org/2000/svg">
<path d="M86.5457 16.4551H94.7949V26.1652C94.7949 26.1652 91.8733 29.0868 86.0301 29.0868C80.1869 29.0868 74.9452 24.0169 74.9452 17.5722C74.9452 11.1275 79.5854 6.05762 86.0301 6.05762C92.4748 6.05762 94.1934 9.23702 94.1934 9.23702L92.303 11.1275C92.303 11.1275 90.1547 8.63551 86.0301 8.63551C81.9055 8.63551 77.7809 12.8461 77.7809 17.6581C77.7809 22.4702 81.1321 26.6807 86.0301 26.6807C90.9281 26.6807 92.1311 25.0481 92.1311 25.0481V19.1189H86.5457V16.541V16.4551Z" fill="#231F20"/>
<path d="M101.841 15.9391H111.293V18.517H101.841V26.1647H112.239V28.7426H99.1773V6.40088H112.067V8.97877H101.841V16.025V15.9391Z" fill="#231F20"/>
<path d="M119.285 6.31494L131.229 24.1883V6.31494H133.893V28.6567H131.143L119.199 10.7833V28.6567H116.535V6.31494H119.285Z" fill="#231F20"/>
<path d="M141.798 15.9391H151.251V18.517H141.798V26.1647H152.196V28.7426H139.135V6.40088H152.024V8.97877H141.798V16.025V15.9391Z" fill="#231F20"/>
<path d="M156.492 6.31494H162.25C166.718 6.31494 169.726 8.89283 169.726 12.9315C169.726 16.9702 164.914 19.2044 164.312 19.2903L170.499 28.6567H167.32L161.305 19.5481H159.242V28.6567H156.578V6.31494H156.492ZM167.062 12.9315C167.062 10.4396 165.429 8.89283 162.422 8.89283H159.156V16.9702H162.422C165.429 16.9702 167.062 15.3376 167.062 12.9315Z" fill="#231F20"/>
<path d="M180.553 6.31494H183.045L191.724 28.6567H188.888L186.568 22.6416H176.944L174.624 28.6567H171.788L180.553 6.31494ZM177.975 20.0637H185.623L181.756 10.1818L177.889 20.0637H177.975Z" fill="#231F20"/>
<path d="M194.559 6.31494H197.223V26.0788H207.191V28.6567H194.473V6.31494H194.559Z" fill="#231F20"/>
<path d="M78.9839 46.1866H88.4362V48.7645H78.9839V56.4123H89.3814V58.9902H76.3201V36.6484H89.2095V39.2263H78.9839V46.2726V46.1866Z" fill="#231F20"/>
<path d="M114.301 47.7333C114.301 50.4831 113.442 52.975 111.981 54.9514L115.418 58.0449L113.785 60.0213L110.262 56.9278C108.372 58.4745 106.052 59.3338 103.302 59.3338C96.8572 59.3338 92.3029 54.264 92.3029 47.8193C92.3029 41.3745 96.8572 36.3047 103.302 36.3047C109.747 36.3047 114.301 41.3745 114.301 47.8193V47.7333ZM106.653 50.3112L109.833 53.1469C110.864 51.6002 111.465 49.7097 111.465 47.7333C111.465 43.0072 108.114 38.7107 103.302 38.7107C98.4899 38.7107 95.1386 42.9213 95.1386 47.7333C95.1386 52.5454 98.4899 56.7559 103.302 56.7559C108.114 56.7559 106.825 56.1544 108.114 55.0373L105.021 52.2017L106.739 50.2253L106.653 50.3112Z" fill="#231F20"/>
<path d="M132.432 36.6484H135.096V50.7409C135.096 55.8108 132.088 59.3339 126.933 59.3339C121.777 59.3339 118.769 55.8108 118.769 50.7409V36.6484H121.433V50.4831C121.433 54.0922 123.066 56.8419 126.847 56.8419C130.628 56.8419 132.26 54.0922 132.26 50.4831V36.6484H132.432Z" fill="#231F20"/>
<path d="M140.767 36.6484H143.431V58.9902H140.767V36.6484Z" fill="#231F20"/>
<path d="M149.188 36.6484H154.946C159.586 36.6484 162.593 39.1404 162.593 43.3509C162.593 47.5615 159.672 50.0535 154.946 50.0535H151.852V58.9042H149.188V36.5625V36.6484ZM154.774 47.4756C157.781 47.4756 159.844 46.1007 159.844 43.265C159.844 40.4293 157.781 39.0545 154.774 39.0545H151.852V47.3896H154.774V47.4756Z" fill="#231F20"/>
<path d="M168.694 36.6484L176.342 49.1082L183.99 36.6484H186.568V58.9902H183.904V41.5464L176.256 53.9203L168.609 41.5464V58.9902H165.945V36.6484H168.609H168.694Z" fill="#231F20"/>
<path d="M194.473 46.1866H203.926V48.7645H194.473V56.4123H204.871V58.9902H191.81V36.6484H204.699V39.2263H194.473V46.2726V46.1866Z" fill="#231F20"/>
<path d="M211.917 36.6484L223.861 54.5218V36.6484H226.525V58.9902H223.775L211.831 41.1168V58.9902H209.167V36.6484H211.917Z" fill="#231F20"/>
<path d="M235.977 39.1404H229.533V36.5625H245V39.1404H238.555V58.9042H235.891V39.1404H235.977Z" fill="#231F20"/>
<path d="M58.9623 53.2327C71.5939 37.3358 66.5241 13.7051 48.7366 4.08098C23.3015 -9.7537 -6.17241 13.791 1.13161 41.6322C7.74819 66.7237 39.8859 74.4574 57.2437 55.381C57.0718 47.9051 59.1341 39.8277 52.7753 34.4142C46.4165 29.0006 47.4477 31.3207 45.4713 31.3207H36.1909V7.34631H32.6678V54.6936H36.1909V34.9297H45.6432C49.1663 34.9297 53.5487 39.484 53.8924 43.0071C54.2361 46.6162 53.7206 50.7408 53.8924 54.4358C39.8859 68.4423 15.9974 64.6614 6.71704 47.1317C-4.19603 26.4227 11.7869 2.1046 34.9879 3.39354C55.1814 4.4247 68.5005 25.8212 60.7668 44.5539C60.509 45.0694 59.1341 47.6473 59.1341 47.8192V53.4046L58.9623 53.2327Z" fill="#2EA898"/>
<path d="M31.0351 7.34668H26.5668C21.5828 7.34668 14.2788 13.7914 14.2788 18.9472V31.407H6.11551V34.6723L6.3733 34.9301H14.1929V54.6939H17.5442V34.9301H30.8632L31.121 34.6723V31.407H17.5442V19.8065C17.5442 16.1115 22.614 10.8698 26.309 10.8698H30.6914L30.9492 10.612V7.34668H31.0351Z" fill="#2EA898"/>
</svg>
