<svg width="71" height="80" viewBox="0 0 71 80" fill="none" xmlns="http://www.w3.org/2000/svg">
<g clip-path="url(#clip0_30_103)">
<path d="M12.2852 18.945C17.8146 15.7588 23.3224 12.5726 28.8734 9.3648C27.9912 5.85565 28.8734 2.99236 31.95 1.03326C34.2952 -0.452205 37.3718 -0.301506 39.5879 1.37772C42.2343 3.4014 42.9443 6.09247 42.1052 9.34328C47.6346 12.5295 53.164 15.7372 58.6934 18.9235C61.1676 16.5123 63.9861 15.7372 67.1058 17.2658C69.7306 18.536 71.0861 20.7964 70.957 23.7028C70.8064 27.2981 68.7194 29.4294 65.32 30.3982C65.32 36.7921 65.32 43.1646 65.32 49.5586C68.6979 50.5273 70.7634 52.6371 70.957 56.1678C71.1076 59.0957 69.7737 61.3562 67.1703 62.6479C64.0291 64.2195 61.1891 63.466 58.6934 61.0333C53.164 64.2195 47.6346 67.4057 42.1052 70.6135C42.9873 74.1226 42.1052 76.9859 39.0285 78.945C36.6834 80.4305 33.6282 80.2798 31.3906 78.579C28.7227 76.5553 28.0343 73.8643 28.8734 70.6135C23.344 67.4272 17.8146 64.2195 12.2852 61.0333C9.78941 63.4445 6.99244 64.2195 3.85123 62.691C1.2479 61.4423 -0.129071 59.1818 2.00709e-05 56.2755C0.150626 52.7017 2.2376 50.5489 5.63699 49.5801C5.63699 43.1861 5.63699 36.7921 5.63699 30.4197C2.28063 29.4509 0.193656 27.3411 0.0215352 23.7889C-0.150586 20.8826 1.20487 18.6005 3.8082 17.3088C6.94941 15.7372 9.78941 16.4907 12.2852 18.945ZM30.1643 68.4175C30.2934 68.3099 30.3579 68.2668 30.4224 68.2238C33.4346 65.3174 37.3934 65.2529 40.427 68.0731C40.8143 68.4391 41.0509 68.3099 41.3952 68.0946C46.5373 65.1021 51.7009 62.1312 56.8646 59.1818C57.3594 58.9019 57.424 58.6436 57.2949 58.1054C56.4988 54.7039 58.2415 51.3239 61.4473 50.0322C61.8561 49.86 62.3079 49.7523 62.7382 49.6016C62.7382 43.1861 62.7382 36.8137 62.7382 30.3982C62.5015 30.3336 62.3079 30.269 62.1143 30.2044C58.4997 29.0849 56.4343 25.5758 57.3164 21.8729C57.4455 21.3131 57.3379 21.0763 56.8646 20.818C52.1312 18.1054 47.4409 15.3713 42.7291 12.6587C42.1052 12.2927 41.4812 11.9482 40.8788 11.6038C38.0388 14.6178 33.5206 14.9837 30.2288 11.6468C30.1643 11.6684 30.0782 11.6899 30.0137 11.7114C24.6994 14.7685 19.3852 17.847 14.0494 20.9041C13.6837 21.1194 13.6191 21.3131 13.7267 21.7437C14.4582 24.7792 13.3394 27.7071 10.8006 29.3217C10.0476 29.7954 9.16547 30.0968 8.30487 30.5058C8.30487 36.8352 8.30487 43.2076 8.30487 49.6016C8.41244 49.6447 8.47699 49.6877 8.54154 49.7093C12.5003 50.6565 14.7379 54.7039 13.7052 58.4068C13.6621 58.6005 13.8343 58.9665 14.0064 59.0742C14.7379 59.5478 15.534 59.9784 16.287 60.4305C20.8912 63.0569 25.517 65.7265 30.1643 68.4175ZM11.3385 23.4875C11.3385 21.0763 9.31608 19.0742 6.9279 19.0957C4.5182 19.1172 2.53881 21.1194 2.53881 23.5306C2.56032 25.9633 4.53972 27.9224 6.97093 27.9009C9.40214 27.9009 11.36 25.9202 11.3385 23.4875ZM59.6615 23.5306C59.6615 25.9633 61.6409 27.9224 64.0721 27.9224C66.4818 27.9224 68.4827 25.9202 68.4612 23.509C68.4397 21.0978 66.4388 19.0957 64.0506 19.1172C61.6194 19.0957 59.6615 21.0978 59.6615 23.5306ZM11.3385 56.4907C11.3385 54.058 9.35911 52.0989 6.94941 52.0989C4.5182 52.0989 2.53881 54.0795 2.53881 56.5123C2.53881 58.9235 4.53972 60.9256 6.94941 60.9256C9.35911 60.9041 11.36 58.9019 11.3385 56.4907ZM59.6615 56.5123C59.6615 58.9235 61.6624 60.9256 64.0721 60.9256C66.4818 60.9256 68.4827 58.9019 68.4612 56.4907C68.4612 54.058 66.4603 52.0989 64.0506 52.0989C61.6194 52.0989 59.6615 54.0795 59.6615 56.5123ZM39.8891 6.97514C39.8676 4.54241 37.9097 2.58332 35.4785 2.60485C33.0473 2.62637 31.1109 4.58547 31.1324 7.03972C31.154 9.45092 33.1549 11.4531 35.5431 11.4315C37.9527 11.41 39.9106 9.40786 39.8891 6.97514ZM39.8891 73.0031C39.9106 70.5704 37.9528 68.5898 35.5215 68.5682C33.1118 68.5467 31.1109 70.5273 31.1109 72.9601C31.0894 75.3928 33.0473 77.3734 35.4785 77.3949C37.9097 77.3949 39.8891 75.4574 39.8891 73.0031Z" fill="white"/>
<path d="M51.1631 28.6543C50.991 29.0202 50.8619 29.3432 50.6682 29.6446C50.0228 30.6349 49.3988 31.6252 48.7104 32.594C48.4307 32.9815 48.3231 33.3259 48.6243 33.7565C48.7104 33.8642 48.7749 33.9933 48.7964 34.1225C49.0331 35.5864 50.0228 36.0601 51.3567 36.1677C52.1313 36.2323 52.8843 36.4691 53.6373 36.6198C54.5625 36.8351 54.8852 37.1795 54.9067 38.1053C54.9282 39.3755 54.9282 40.6241 54.9067 41.8943C54.8852 42.82 54.5625 43.186 53.6588 43.3798C52.4325 43.6381 51.1846 43.8749 49.9582 44.1763C49.6785 44.2409 49.3988 44.5208 49.2482 44.7791C48.9685 45.2958 48.7319 45.8555 48.5813 46.4153C48.4952 46.6736 48.5167 47.0396 48.6458 47.2764C49.3128 48.3529 50.0228 49.3862 50.7113 50.4411C51.2491 51.2592 51.2061 51.7544 50.5176 52.4433C49.657 53.3259 48.7749 54.2086 47.8928 55.0698C47.2473 55.7156 46.7094 55.7587 45.9564 55.2635C44.9237 54.5961 43.891 53.9287 42.8797 53.2183C42.514 52.96 42.2343 53.003 41.7825 53.1107C40.0397 53.5197 39.3297 54.6177 39.2437 56.3184C39.2222 56.9643 39.007 57.5886 38.8779 58.2129C38.7273 58.9664 38.297 59.4185 37.501 59.44C36.167 59.4616 34.8116 59.4616 33.4776 59.44C32.7031 59.4185 32.2513 58.9879 32.1007 58.2129C31.8425 56.9427 31.6058 55.6941 31.3046 54.4454C31.2401 54.1871 30.9604 53.9933 30.7452 53.778C30.6591 53.6919 30.487 53.7135 30.3794 53.6273C29.11 52.7016 27.9913 53.0461 26.894 53.9933C26.3346 54.4885 25.6676 54.8329 25.0222 55.242C24.2261 55.7371 23.7313 55.6941 23.0858 55.0482C22.1822 54.1656 21.3001 53.2614 20.4179 52.3787C19.837 51.7974 19.794 51.1731 20.2458 50.4842C20.9343 49.4293 21.6658 48.3959 22.3113 47.3195C22.4619 47.0611 22.4188 46.6521 22.3973 46.3292C22.3758 46.1354 22.1822 45.9417 22.1391 45.7479C21.9455 44.3916 20.9988 44.0041 19.794 43.8749C18.9549 43.7888 18.1158 43.552 17.2767 43.3798C16.5237 43.2291 16.0934 42.777 16.0934 41.9804C16.0934 40.6672 16.0934 39.3539 16.0934 38.0407C16.0934 37.2226 16.5452 36.7705 17.3628 36.6198C18.5891 36.383 19.837 36.1462 21.0634 35.8232C21.3431 35.7587 21.6228 35.4788 21.7734 35.2205C22.0531 34.7038 22.2897 34.144 22.4404 33.5843C22.5264 33.3259 22.5049 32.96 22.3758 32.7231C21.7088 31.6467 20.9988 30.6133 20.3104 29.5585C19.7725 28.7188 19.8155 28.2452 20.504 27.5563C21.3646 26.6736 22.2467 25.791 23.1288 24.9298C23.7958 24.284 24.2907 24.2409 25.0652 24.7361C26.0979 25.4034 27.1307 26.0708 28.1634 26.7813C28.5291 27.0396 28.8088 26.9966 29.2391 26.9104C30.9819 26.5014 31.6919 25.4034 31.7779 23.7027C31.7994 23.0568 32.0146 22.4325 32.1437 21.8082C32.2943 21.0116 32.7461 20.5811 33.5852 20.5811C34.8761 20.5811 36.167 20.5811 37.4579 20.5811C38.297 20.5811 38.7488 20.9901 38.8994 21.7867C39.1576 23.0568 39.3943 24.3055 39.6955 25.5541C39.76 25.8125 40.0182 26.0493 40.2549 26.2C41.7179 27.1473 43.0734 27.0611 44.3858 25.8125C44.8591 25.3604 45.4831 25.059 46.0425 24.693C46.6879 24.2624 47.3119 24.3055 47.8713 24.8652C48.7964 25.791 49.7431 26.7167 50.6467 27.6639C50.8619 27.9438 50.991 28.3098 51.1631 28.6543ZM46.6234 27.4056C45.5476 28.116 44.4719 28.805 43.4176 29.5369C42.7722 29.989 42.1913 30.0105 41.4813 29.6446C40.5776 29.1709 39.631 28.7619 38.6628 28.482C37.8667 28.2452 37.4364 27.7931 37.3073 26.9966C37.1567 26.1785 36.9846 25.3604 36.8125 24.5423C36.5328 23.1214 36.5328 23.1429 35.0913 23.1645C34.6394 23.1645 34.4243 23.2936 34.3597 23.7673C34.1876 24.8437 33.9294 25.9201 33.7143 26.9966C33.5637 27.7501 33.1979 28.2022 32.4234 28.439C31.4337 28.7404 30.4655 29.1925 29.5404 29.6446C28.8734 29.9675 28.2925 29.989 27.6685 29.5585C26.5928 28.805 25.474 28.116 24.3982 27.4056C23.9034 27.9008 23.43 28.3529 22.9352 28.848C23.6667 29.946 24.3552 31.0439 25.0867 32.0988C25.5385 32.7447 25.5601 33.3259 25.1943 34.0364C24.721 34.9621 24.3122 35.9309 23.9894 36.9212C23.7528 37.6532 23.344 38.0407 22.6125 38.1914C21.5367 38.4067 20.461 38.665 19.3852 38.8372C18.8258 38.9234 18.6537 39.1817 18.7182 39.6769C18.7397 39.8921 18.7397 40.1074 18.7182 40.3227C18.6537 40.8394 18.8473 41.0762 19.4067 41.1623C20.4825 41.3346 21.5582 41.5929 22.634 41.8082C23.3655 41.9589 23.7743 42.3464 24.011 43.0784C24.3122 44.0256 24.6564 44.9513 25.1297 45.8125C25.5601 46.5875 25.5601 47.2334 25.0437 47.9653C24.3122 48.9987 23.6237 50.0967 22.9782 51.0654C23.4946 51.6252 23.9249 52.0988 24.3767 52.594C25.4955 51.862 26.6143 51.1516 27.69 50.4196C28.314 49.989 28.8949 50.0106 29.5619 50.3335C30.487 50.7856 31.4552 51.2161 32.4449 51.5391C33.1764 51.7759 33.5852 52.1849 33.7143 52.9169C33.9079 53.9287 34.1661 54.8975 34.2952 55.9094C34.4028 56.7059 34.747 56.9858 35.5 56.8566C35.6291 56.8351 35.7797 56.8351 35.9088 56.8566C36.4037 56.9212 36.6188 56.7059 36.6834 56.2108C36.8555 55.1343 37.1352 54.0579 37.3288 52.9815C37.4794 52.2065 37.8667 51.7759 38.6413 51.5391C39.5879 51.2592 40.5131 50.8932 41.3737 50.4196C42.1697 49.989 42.8152 50.0321 43.5252 50.5272C44.5579 51.2592 45.6122 51.9266 46.5804 52.5724C47.1182 52.0558 47.5916 51.6037 48.0864 51.13C47.3549 50.0105 46.6449 48.9126 45.9134 47.8146C45.5046 47.2118 45.5046 46.6736 45.8273 46.0062C46.3007 45.0375 46.731 44.0687 47.0537 43.0568C47.2904 42.3679 47.6776 41.9589 48.3661 41.8297C49.4419 41.6144 50.5176 41.3561 51.5934 41.1839C52.1743 41.0977 52.411 40.8825 52.3249 40.3012C52.3034 40.0644 52.3034 39.806 52.3249 39.5692C52.3679 39.0956 52.1743 38.9234 51.701 38.8372C50.6252 38.665 49.5494 38.3851 48.4737 38.1914C47.7207 38.0407 47.2688 37.6747 47.0322 36.8997C46.731 35.9094 46.3007 34.9406 45.8273 34.0149C45.4831 33.3259 45.4831 32.7662 45.9134 32.1419C46.6664 31.0654 47.3549 29.946 48.1079 28.8265C47.6346 28.3529 47.1613 27.9223 46.6234 27.4056Z" fill="white"/>
<path d="M44.0846 40.0214C44.0846 44.8007 40.2334 48.6113 35.457 48.5682C30.7237 48.5467 26.937 44.7146 26.937 39.9783C26.937 35.199 30.7882 31.3885 35.5646 31.4315C40.2979 31.453 44.0846 35.2851 44.0846 40.0214ZM41.5028 39.9999C41.5028 36.6629 38.8564 34.0149 35.5431 33.9934C32.2082 33.9719 29.5403 36.6199 29.5188 39.9353C29.4973 43.2937 32.1652 45.9848 35.5216 45.9848C38.8349 45.9848 41.5028 43.3368 41.5028 39.9999Z" fill="white"/>
</g>
<defs>
<clipPath id="clip0_30_103">
<rect width="71" height="80" fill="white"/>
</clipPath>
</defs>
</svg>
