<svg width="179" height="48" viewBox="0 0 179 48" fill="none" xmlns="http://www.w3.org/2000/svg">
<path d="M62.9111 11.9612H68.9076V19.0196C68.9076 19.0196 66.7838 21.1433 62.5363 21.1433C58.2888 21.1433 54.4785 17.458 54.4785 12.7733C54.4785 8.0885 57.8516 4.40317 62.5363 4.40317C67.2211 4.40317 68.4703 6.71431 68.4703 6.71431L67.0961 8.0885C67.0961 8.0885 65.5346 6.27707 62.5363 6.27707C59.5381 6.27707 56.5398 9.33777 56.5398 12.8357C56.5398 16.3337 58.9759 19.3944 62.5363 19.3944C66.0967 19.3944 66.9712 18.2076 66.9712 18.2076V13.8976H62.9111V12.0237V11.9612Z" fill="#231F20"/>
<path d="M74.0295 11.5865H80.9005V13.4604H74.0295V19.0196H81.5876V20.8935H72.0932V4.65303H81.4626V6.52693H74.0295V11.6489V11.5865Z" fill="#231F20"/>
<path d="M86.7096 4.59057L95.392 17.5829V4.59057H97.3284V20.831H95.3296L86.6472 7.83866V20.831H84.7108V4.59057H86.7096Z" fill="#231F20"/>
<path d="M103.075 11.5865H109.946V13.4604H103.075V19.0196H110.633V20.8935H101.139V4.65303H110.508V6.52693H103.075V11.6489V11.5865Z" fill="#231F20"/>
<path d="M113.756 4.59057H117.941C121.189 4.59057 123.376 6.46447 123.376 9.40024C123.376 12.336 119.878 13.9601 119.44 14.0225L123.938 20.831H121.627L117.254 14.2099H115.755V20.831H113.819V4.59057H113.756ZM121.439 9.40024C121.439 7.5888 120.252 6.46447 118.066 6.46447H115.693V12.336H118.066C120.252 12.336 121.439 11.1492 121.439 9.40024Z" fill="#231F20"/>
<path d="M131.246 4.59057H133.057L139.366 20.831H137.305L135.618 16.4586H128.622L126.936 20.831H124.875L131.246 4.59057ZM129.372 14.5847H134.931L132.12 7.40142L129.309 14.5847H129.372Z" fill="#231F20"/>
<path d="M141.427 4.59057H143.364V18.9571H150.61V20.831H141.365V4.59057H141.427Z" fill="#231F20"/>
<path d="M57.4143 33.5735H64.2853V35.4474H57.4143V41.0067H64.9724V42.8806H55.478V26.6401H64.8475V28.514H57.4143V33.636V33.5735Z" fill="#231F20"/>
<path d="M83.0867 34.6979C83.0867 36.6967 82.4621 38.5081 81.4002 39.9448L83.8987 42.1935L82.7119 43.6301L80.1509 41.3814C78.7767 42.5058 77.0902 43.1304 75.0914 43.1304C70.4067 43.1304 67.0961 39.4451 67.0961 34.7603C67.0961 30.0756 70.4067 26.3903 75.0914 26.3903C79.7761 26.3903 83.0867 30.0756 83.0867 34.7603V34.6979ZM77.5275 36.5718L79.8386 38.6331C80.5882 37.5087 81.0254 36.1345 81.0254 34.6979C81.0254 31.2624 78.5893 28.1392 75.0914 28.1392C71.5935 28.1392 69.1574 31.1999 69.1574 34.6979C69.1574 38.1958 71.5935 41.2565 75.0914 41.2565C78.5893 41.2565 77.6524 40.8193 78.5893 40.0072L76.3407 37.946L77.5899 36.5093L77.5275 36.5718Z" fill="#231F20"/>
<path d="M96.2665 26.6401H98.2029V36.8841C98.2029 40.5694 96.0166 43.1304 92.2689 43.1304C88.5211 43.1304 86.3348 40.5694 86.3348 36.8841V26.6401H88.2712V36.6967C88.2712 39.3202 89.458 41.319 92.2064 41.319C94.9548 41.319 96.1416 39.3202 96.1416 36.6967V26.6401H96.2665Z" fill="#231F20"/>
<path d="M102.325 26.6401H104.262V42.8806H102.325V26.6401Z" fill="#231F20"/>
<path d="M108.447 26.6401H112.632C116.005 26.6401 118.191 28.4515 118.191 31.5122C118.191 34.5729 116.067 36.3844 112.632 36.3844H110.383V42.8181H108.447V26.5776V26.6401ZM112.507 34.5105C114.693 34.5105 116.192 33.5111 116.192 31.4498C116.192 29.3885 114.693 28.3891 112.507 28.3891H110.383V34.448H112.507V34.5105Z" fill="#231F20"/>
<path d="M122.626 26.6401L128.185 35.6973L133.744 26.6401H135.618V42.8806H133.682V30.2005L128.123 39.1952L122.564 30.2005V42.8806H120.627V26.6401H122.564H122.626Z" fill="#231F20"/>
<path d="M141.365 33.5735H148.236V35.4474H141.365V41.0067H148.923V42.8806H139.429V26.6401H148.798V28.514H141.365V33.636V33.5735Z" fill="#231F20"/>
<path d="M154.045 26.6401L162.727 39.6325V26.6401H164.664V42.8806H162.665L153.983 29.8882V42.8806H152.046V26.6401H154.045Z" fill="#231F20"/>
<path d="M171.535 28.4515H166.85V26.5776H178.093V28.4515H173.409V42.8181H171.472V28.4515H171.535Z" fill="#231F20"/>
<path d="M42.8604 38.6955C52.0425 27.1398 48.3571 9.9624 35.4272 2.96651C16.9381 -7.09008 -4.4868 10.0249 0.822581 30.263C5.63225 48.5023 28.9935 54.124 41.6111 40.2571C41.4862 34.8228 42.9853 28.9512 38.363 25.0161C33.7407 21.0809 34.4903 22.7674 33.0536 22.7674H26.3076V5.34012H23.7466V39.7574H26.3076V25.3908H33.1786C35.7396 25.3908 38.9252 28.7014 39.175 31.2624C39.4249 33.8858 39.0501 36.8841 39.175 39.57C28.9935 49.7515 11.6287 47.0031 4.8827 34.2606C-3.05014 19.207 8.56803 1.52986 25.4331 2.46681C40.112 3.21637 49.7938 18.7697 44.1721 32.3867C43.9847 32.7615 42.9853 34.6354 42.9853 34.7603V38.8204L42.8604 38.6955Z" fill="#2EA898"/>
<path d="M22.5598 5.34012H19.3117C15.6888 5.34012 10.3794 10.0249 10.3794 13.7727V22.8298H4.44543V25.2034L4.63282 25.3908H10.317V39.7574H12.7531V25.3908H22.4349L22.6222 25.2034V22.8298H12.7531V14.3973C12.7531 11.7114 16.4384 7.90112 19.1243 7.90112H22.3099L22.4973 7.71373V5.34012H22.5598Z" fill="#2EA898"/>
</svg>
